<?xml version="1.0" standalone="no"?>
<!DOCTYPE svg PUBLIC "-//W3C//DTD SVG 1.1//EN" "http://www.w3.org/Graphics/SVG/1.1/DTD/svg11.dtd" >
<svg xmlns="http://www.w3.org/2000/svg" xmlns:xlink="http://www.w3.org/1999/xlink" version="1.1">
<metadata>
Created by FontForge 20160407 at Tue May 17 22:58:11 2016
 By Jimmy Wärting
Coves &#38; Coves  Light (c) Jack Harvatt 2016. All Rights Reserved
</metadata>
<defs>
<font id="Coves-Bold" horiz-adv-x="1014" >
  <font-face 
    font-family="Coves"
    font-weight="700"
    font-stretch="normal"
    units-per-em="2048"
    panose-1="2 0 5 0 0 0 0 0 0 0"
    ascent="1638"
    descent="-410"
    x-height="900"
    cap-height="1432"
    bbox="-741.5 -536 1967 1873"
    underline-thickness="150"
    underline-position="-292"
    unicode-range="U+001D-F002"
  />
<missing-glyph horiz-adv-x="1024" 
d="M739 910v-6l-1 -8v-9q-2 -15 -7 -32q-8 -32 -26 -59q-17 -26 -41 -47q-19 -18 -46 -35q-24 -16 -57 -32l1 -148q0 -9 -9 -9h-100q-9 0 -9 9l1 183v31q0 6 5 9l27 12q55 27 79 42q37 23 53 48q9 12 13 27q2 8 3 15v3l1 3v6v4q0 20 -4 35q-4 17 -11 28q-7 13 -18 22t-27 14
q-14 6 -33 9h-5l-5 1h-9l-10 1l-5 -1h-4q-37 -1 -72 -18q-15 -7 -32 -19l-15 -12l-5 -5q-6 -6 -13 -1l-69 57q-7 7 -1 14q4 3 5 5l11 10q10 9 23 19q23 18 49 30q53 26 113 30h14h14h15l7 -1l7 -1q33 -4 59 -14q32 -11 57 -31q27 -21 45 -50q17 -28 25 -60q7 -28 7 -61v-8z
M461 324q-26 20 -26 53q0 28 20 48q20 19 48 19q32 0 53 -25q20 -25 13 -58q-9 -40 -49 -50q-33 -8 -59 13zM0 224q0 -14 14 -14h997q14 0 14 14v998q0 13 -14 13h-997q-14 0 -14 -13v-998z" />
    <glyph glyph-name=".notdef" horiz-adv-x="1024" 
d="M739 910v-6l-1 -8v-9q-2 -15 -7 -32q-8 -32 -26 -59q-17 -26 -41 -47q-19 -18 -46 -35q-24 -16 -57 -32l1 -148q0 -9 -9 -9h-100q-9 0 -9 9l1 183v31q0 6 5 9l27 12q55 27 79 42q37 23 53 48q9 12 13 27q2 8 3 15v3l1 3v6v4q0 20 -4 35q-4 17 -11 28q-7 13 -18 22t-27 14
q-14 6 -33 9h-5l-5 1h-9l-10 1l-5 -1h-4q-37 -1 -72 -18q-15 -7 -32 -19l-15 -12l-5 -5q-6 -6 -13 -1l-69 57q-7 7 -1 14q4 3 5 5l11 10q10 9 23 19q23 18 49 30q53 26 113 30h14h14h15l7 -1l7 -1q33 -4 59 -14q32 -11 57 -31q27 -21 45 -50q17 -28 25 -60q7 -28 7 -61v-8z
M461 324q-26 20 -26 53q0 28 20 48q20 19 48 19q32 0 53 -25q20 -25 13 -58q-9 -40 -49 -50q-33 -8 -59 13zM0 224q0 -14 14 -14h997q14 0 14 14v998q0 13 -14 13h-997q-14 0 -14 -13v-998z" />
    <glyph glyph-name=".null" horiz-adv-x="0" 
 />
    <glyph glyph-name=".null" horiz-adv-x="0" 
 />
    <glyph glyph-name="nonmarkingreturn" horiz-adv-x="508" 
 />
    <glyph glyph-name="space" unicode=" " horiz-adv-x="508" 
 />
    <glyph glyph-name="space" unicode="&#xa0;" horiz-adv-x="508" 
 />
    <glyph glyph-name="exclam" unicode="!" horiz-adv-x="554" 
d="M277 181q-37 0 -64 -27q-26 -26 -26 -64q0 -37 26 -64q27 -26 64 -26t64 26q26 27 26 64q0 38 -26 65q-27 26 -64 26zM201 313q0 -13 14 -13h125q13 0 13 13v851q0 13 -13 13h-125q-14 0 -14 -13v-851z" />
    <glyph glyph-name="quotedbl" unicode="&#x22;" horiz-adv-x="249" 
d="M175 1229q-13 0 -13 14v226q0 13 13 13h53q13 0 13 -13v-226q0 -14 -13 -14h-53zM5 1229q-14 0 -14 14v226q0 13 14 13h52q14 0 14 -13v-226q0 -14 -14 -14h-52z" />
    <glyph glyph-name="numbersign" unicode="#" horiz-adv-x="1188" 
d="M722 604h-290l20 248h289zM929 1026l25 318q2 14 -13 14h-148q-12 0 -13 -12l-25 -320h-290l25 318q2 14 -13 14h-148q-12 0 -13 -12l-25 -320h-116q-12 0 -13 -12l-11 -148q-1 -14 13 -14h113l-19 -248h-116q-12 0 -13 -12l-12 -148q-1 -14 13 -14h114l-25 -309l-2 -32
q-1 -14 13 -14h148q12 0 13 12l27 343h290l-24 -309l-3 -32q-1 -14 13 -14h148q12 0 13 12l27 343h129q12 0 13 12l12 148q1 14 -13 14h-127l20 248h128q12 0 13 12l12 148q1 14 -13 14h-127z" />
    <glyph glyph-name="dollar" unicode="$" horiz-adv-x="841" 
d="M577 498v-3v-3v-3l-1 -5l-1 -5q-10 -43 -50 -65q-14 -7 -33 -12v217q45 -25 64 -49q16 -19 20 -41l1 -5q1 -3 1 -6v-6v-2v-2zM309 899l-4 5l-4 4l-2 4l-3 5l-2 4l-2 4l-1 5v1l-1 2v1l-1 1v10l-1 5v1l1 6v6l1 6l1 6l1 5q5 20 17 32q13 13 34 22q6 2 14 5v-177l-1 1
q-31 18 -47 36zM741 517l-1 15q0 6 -1 15l-3 16q-13 62 -56 112q-33 38 -85 71q-36 22 -87 46l-16 7v241q31 -8 59 -22q9 -5 21 -13q8 -5 17 -12t17 1l91 89q10 10 0 19q-8 8 -12 11q-12 10 -26 19q-17 12 -36 22q-51 27 -106 39q-11 3 -25 5v84q0 13 -13 13h-109
q-13 0 -13 -13v-84q-39 -6 -71 -19q-52 -20 -89 -57q-41 -41 -57 -101l-4 -14l-2 -14q-3 -17 -3 -28l-1 -14v-1q0 2 0 1v-2l1 -3v-1v-1v-3v-5l1 -10q1 -8 2 -18l2 -9q1 -5 2 -9l4 -15q2 -6 6 -15l7 -15q5 -11 16 -27l9 -13q5 -7 10 -11q33 -38 86 -69q32 -19 81 -41v-286
l-6 1l-11 3l-10 2q-35 10 -66 28q-9 5 -20 13q-8 5 -17 13q-9 7 -17 -1l-104 -99q-10 -9 0 -19q13 -11 28 -22q21 -16 46 -31q50 -28 104 -43q37 -10 69 -13l4 -1v-76q0 -13 13 -13h109q13 0 13 13v80l18 3q52 11 91 32q52 27 86 71q37 47 49 108q1 6 2 15l2 16q1 4 1 7v2v3
v10v3l1 7z" />
    <glyph glyph-name="percent" unicode="%" horiz-adv-x="1031" 
d="M306 15q-2 -15 13 -15h149q11 0 13 11l185 1409q2 15 -13 15h-148q-12 0 -13 -11zM622 467q-2 -13 10 -15q50 -8 84 -47q34 -38 35 -90q2 -57 -38 -100t-97 -46q-11 -1 -21 0q-12 1 -14 -11l-18 -141q-2 -14 11 -15q17 -2 35 -2q128 0 220 91q91 92 91 220q0 117 -76 204
t-189 104q-13 2 -15 -11zM360 968q2 13 -10 15q-50 8 -84 47q-34 38 -35 90q-2 57 38 100t97 46q10 1 21 0q12 -1 14 11l18 141q2 14 -11 15q-17 2 -35 2q-128 0 -220 -91q-91 -92 -91 -220q0 -117 76 -204t189 -104q13 -2 14 11z" />
    <glyph glyph-name="ampersand" unicode="&#x26;" horiz-adv-x="1204" 
d="M356 246q-77 76 -77 184q0 61 29 117q28 55 81 95q21 16 43 27q149 -211 304 -411q-78 -89 -196 -89q-108 0 -184 77zM705 1212q54 -54 54 -130q0 -51 -26 -94q-25 -44 -67 -66q-59 -30 -160 -53l-7 -2q-17 25 -33 49q-13 19 -25 36q-5 7 -9 14q-3 4 -7 10l-5 8
q-29 45 -29 98q0 76 54 130t130 54t130 -54zM1070 214q-7 10 -18 3q-7 -5 -13 -9q-8 -5 -14 -9q-16 -10 -17 -10q-4 2 -10 9q-38 48 -59 74q30 76 30 158q0 72 -21 146q-8 27 -18 53q-8 18 -16 34q-6 13 -18 6l-125 -70q-10 -6 -5 -17q4 -10 9 -21q5 -14 10 -29
q12 -40 15 -79q-102 134 -196 266q76 20 140 54q85 44 134 127q50 83 50 182q0 159 -120 264q-120 107 -281 86q-110 -15 -192 -91t-105 -183q-30 -143 48 -266l4 -6q2 -4 5 -7q3 -5 6 -9l18 -26q11 -17 23 -35q-24 -14 -48 -33q-98 -75 -143 -184q-46 -110 -28 -229
q23 -146 132 -247q110 -102 256 -114q165 -14 295 85q23 17 43 37l25 -31q12 -15 25 -27q25 -22 54 -34q23 -9 48 -11q45 -4 90 16q16 7 32 16q5 4 11 8q4 3 8 7l16 11q11 8 3 18z" />
    <glyph glyph-name="quotesingle" unicode="'" horiz-adv-x="54" 
d="M63 1229q14 0 14 14v226q0 13 -14 13h-52q-14 0 -14 -13v-226q0 -14 14 -14h52z" />
    <glyph glyph-name="parenleft" unicode="(" horiz-adv-x="587" 
d="M300 1395q-13 5 -17 -7l-11 -28q-107 -270 -107 -643q0 -372 107 -643l11 -27q4 -12 17 -7l137 54q13 5 8 17l-11 27q-95 240 -95 579q0 340 95 579l11 28q5 12 -8 17z" />
    <glyph glyph-name="parenright" unicode=")" horiz-adv-x="596" 
d="M162 1341q-13 -5 -8 -17l11 -28q95 -239 95 -579q0 -339 -95 -579l-11 -27q-5 -12 8 -17l137 -54q13 -5 17 7l11 27q107 271 107 643q0 373 -107 643l-11 28q-4 12 -17 7z" />
    <glyph glyph-name="asterisk" unicode="*" horiz-adv-x="444" 
d="M279 1259l94 67q11 8 3 19l-30 41q-7 10 -18 3l-77 -55v91q0 13 -13 13h-50q-13 0 -13 -13v-91l-77 55q-11 7 -18 -3l-30 -41q-8 -11 3 -19l94 -67l-94 -68q-11 -8 -3 -18l30 -42q7 -10 18 -3l77 56v-92q0 -13 13 -13h50q13 0 13 13v92l77 -56q11 -7 18 3l30 42
q8 10 -3 18z" />
    <glyph glyph-name="plus" unicode="+" horiz-adv-x="844" 
d="M503 802v251q0 13 -13 13h-143q-13 0 -13 -13v-251h-251q-13 0 -13 -13v-143q0 -13 13 -13h251v-251q0 -13 13 -13h143q13 0 13 13v251h251q13 0 13 13v143q0 13 -13 13h-251z" />
    <glyph glyph-name="comma" unicode="," horiz-adv-x="364" 
d="M121 193q-12 0 -21 -8q-8 -9 -8 -21v-110q0 -44 31 -75q30 -30 74 -30h9q21 0 35 14q15 15 15 35v166q0 12 -9 21q-8 8 -20 8h-106z" />
    <glyph glyph-name="hyphen" unicode="-" horiz-adv-x="707" 
d="M102 633q-13 0 -13 13v143q0 13 13 13h481q13 0 13 -13v-143q0 -13 -13 -13h-481z" />
    <glyph glyph-name="hyphen" unicode="&#xad;" horiz-adv-x="707" 
d="M102 633q-13 0 -13 13v143q0 13 13 13h481q13 0 13 -13v-143q0 -13 -13 -13h-481z" />
    <glyph glyph-name="period" unicode="." horiz-adv-x="347" 
d="M104 28q-28 29 -28 69t28 68q29 28 69 28t68 -28t28 -68t-28 -69q-28 -28 -68 -28t-69 28z" />
    <glyph glyph-name="slash" unicode="/" horiz-adv-x="603" 
d="M293 0q11 0 12 11l186 1409q2 15 -13 15h-148q-12 0 -13 -11l-186 -1409q-2 -15 13 -15h149z" />
    <glyph glyph-name="zero" unicode="0" horiz-adv-x="1703" 
d="M488 1104q-76 -75 -117 -174q-43 -101 -43 -213q0 -226 160 -387q76 -76 174 -117q102 -43 213 -43q227 0 387 160q76 76 118 174q43 102 43 213q0 227 -161 387q-75 76 -174 118q-101 43 -213 43q-226 0 -387 -161zM596 56q-128 55 -228 154q-99 100 -154 228
q-56 134 -56 279q0 146 56 279q55 129 154 228q100 100 228 154q134 57 279 57q146 0 279 -57q129 -54 228 -154q100 -99 154 -228q57 -133 57 -279q0 -145 -57 -279q-54 -128 -154 -228q-99 -99 -228 -154q-133 -56 -279 -56q-145 0 -279 56z" />
    <glyph glyph-name="one" unicode="1" horiz-adv-x="664" 
d="M119 1228q-10 -10 0 -19l104 -104q9 -9 18 0l57 57v-1149q0 -13 13 -13h147q13 0 13 13v1406q0 13 -13 13h-130q-5 0 -9 -4z" />
    <glyph glyph-name="two" unicode="2" horiz-adv-x="1053" 
d="M388 173l458 683l1 2q54 90 54 196q0 157 -111 269q-112 112 -270 112q-122 0 -222 -72t-139 -187q-4 -13 9 -17l141 -42q12 -3 16 8q22 61 76 99t119 38q86 0 147 -61t61 -147q0 -57 -28 -105l-623 -929q-4 -6 0 -13q3 -7 11 -7h848q12 0 12 13v147q0 13 -12 13h-548z
" />
    <glyph glyph-name="three" unicode="3" horiz-adv-x="996" 
d="M819 1059q0 163 -119 275q-120 112 -284 100q-148 -11 -254 -126l-15 -17q-9 -9 1 -18l109 -100q9 -9 18 1l17 18q53 59 127 68q93 11 161 -52q69 -63 66 -155q-3 -82 -64 -139t-144 -57h-88q-13 0 -13 -13v-148q0 -12 13 -12h87q102 0 180 -73q78 -72 82 -173
q4 -112 -77 -191q-80 -79 -193 -73q-116 7 -192 105l-14 18q-8 11 -18 3l-117 -90q-10 -8 -3 -18l18 -24q63 -82 155 -126t195 -42q172 4 294 127q123 124 125 295q2 107 -46 201q-48 93 -134 155q127 111 127 281z" />
    <glyph glyph-name="four" unicode="4" horiz-adv-x="1087" 
d="M404 591l268 364v-364h-268zM838 591v832q0 9 -8 11q-9 3 -14 -4l-726 -985q-5 -6 -2 -13q4 -7 12 -7h572v-413q0 -12 12 -12h142q12 0 12 12v413h146q13 0 13 13v141q0 12 -13 12h-146z" />
    <glyph glyph-name="five" unicode="5" horiz-adv-x="1082" 
d="M319 43q-107 51 -176 148q-8 11 4 18l118 79q10 7 18 -3q49 -68 127 -98q79 -30 163 -12q90 19 151 90q62 70 70 162q10 125 -75 216q-84 91 -207 91h-292q-13 0 -13 13v675q0 13 13 13h628q13 0 13 -13v-142q0 -13 -13 -13h-473v-365h137q190 0 323 -137t128 -328
q-6 -171 -126 -297t-290 -139q-120 -9 -228 42z" />
    <glyph glyph-name="six" unicode="6" horiz-adv-x="1107" 
d="M401 248q-75 74 -75 179q0 63 30 119l1 1l1 2l17 26q35 50 90 78q54 28 115 28q105 0 179 -75q75 -74 75 -179v-3q-2 -104 -76 -177q-74 -74 -178 -74q-105 0 -179 75zM553 854l360 561q4 6 0 13t-11 7h-175q-8 0 -11 -6l-480 -748q-17 -23 -30 -48l-2 -4
q-51 -94 -51 -202q0 -176 125 -302q126 -125 302 -125q175 0 300 124q125 123 127 298l1 2v3q0 177 -126 302q-125 126 -302 126z" />
    <glyph glyph-name="seven" unicode="7" horiz-adv-x="1039" 
d="M80 1278q0 -13 13 -13h707l-669 -1254q-2 -3 0 -7t7 -4h175q8 0 11 7l754 1411q4 7 0 13t-11 6h-974q-13 0 -13 -13v-146z" />
    <glyph glyph-name="eight" unicode="8" horiz-adv-x="1135" 
d="M442 243q-75 74 -75 179t75 180q74 74 179 74t180 -74q74 -75 74 -180t-74 -179q-75 -75 -180 -75t-179 75zM769 1206q61 -62 61 -148q0 -87 -61 -148q-61 -62 -148 -62t-148 62q-61 61 -61 148q0 86 61 148q61 61 148 61t148 -61zM962 895q37 77 37 163q0 156 -111 266
q-111 111 -267 111t-267 -111q-111 -110 -111 -266q0 -86 37 -163q36 -74 99 -127q-83 -59 -131 -148q-49 -93 -49 -198q0 -174 124 -298t298 -124q175 0 299 124t124 298q0 106 -50 198q-48 90 -131 148q63 53 99 127z" />
    <glyph glyph-name="nine" unicode="9" horiz-adv-x="1067" 
d="M733 1187q74 -74 74 -179q0 -63 -29 -119l-1 -1l-1 -2l-17 -26q-36 -50 -90 -78q-55 -28 -116 -28q-104 0 -179 75q-74 74 -74 179v3q1 104 75 177q75 74 178 74q105 0 180 -75zM253 1311q-125 -123 -127 -298v-2v-3q0 -177 125 -302q126 -126 302 -126l28 1l-360 -561
q-4 -6 -1 -13q4 -7 12 -7h175q7 0 11 6l479 748q17 23 31 48l2 4q51 95 51 202q0 177 -126 302q-125 125 -302 125q-175 0 -300 -124z" />
    <glyph glyph-name="colon" unicode=":" horiz-adv-x="451" 
d="M176 878q-29 29 -29 69t29 68q28 29 68 29t69 -29q28 -28 28 -68t-28 -69q-29 -28 -69 -28t-68 28zM176 333q-29 29 -29 69t29 68q28 29 68 29t69 -29q28 -28 28 -68t-28 -69q-29 -28 -69 -28t-68 28z" />
    <glyph glyph-name="semicolon" unicode=";" horiz-adv-x="457" 
d="M158 470q-12 0 -21 -8q-8 -9 -8 -21v-111q0 -43 30 -74q31 -31 75 -31h9q20 0 35 15q15 14 15 35v166q0 12 -9 21q-8 8 -20 8h-106zM142 877q-28 28 -28 68t28 69q29 28 69 28t68 -28q28 -29 28 -69t-28 -68t-68 -28t-69 28z" />
    <glyph glyph-name="semicolon" unicode="&#x37e;" horiz-adv-x="457" 
d="M158 470q-12 0 -21 -8q-8 -9 -8 -21v-111q0 -43 30 -74q31 -31 75 -31h9q20 0 35 15q15 14 15 35v166q0 12 -9 21q-8 8 -20 8h-106zM142 877q-28 28 -28 68t28 69q29 28 69 28t68 -28q28 -29 28 -69t-28 -68t-68 -28t-69 28z" />
    <glyph glyph-name="less" unicode="&#x3c;" horiz-adv-x="659" 
d="M59 708q-9 9 0 19l363 363q9 9 19 0l101 -101q9 -10 0 -19l-253 -253l253 -252q9 -10 0 -19l-101 -101q-10 -9 -19 0z" />
    <glyph glyph-name="equal" unicode="=" horiz-adv-x="945" 
d="M129 766q-13 0 -13 13v142q0 13 13 13h671q13 0 13 -13v-142q0 -13 -13 -13h-671zM129 500q-13 0 -13 13v143q0 13 13 13h671q13 0 13 -13v-143q0 -13 -13 -13h-671z" />
    <glyph glyph-name="greater" unicode="&#x3e;" horiz-adv-x="654" 
d="M213 345q-10 -9 -19 0l-101 101q-9 9 0 19l253 252l-253 253q-9 9 0 19l101 101q9 9 19 0l363 -363q9 -10 0 -19z" />
    <glyph glyph-name="question" unicode="?" horiz-adv-x="743" 
d="M329 176q-36 0 -62 -26t-26 -62t26 -62t62 -26t62 26t26 62t-26 62t-62 26zM652 929q-1 44 -11 82q-10 45 -33 82q-24 40 -61 69q-35 27 -78 42q-36 14 -81 19l-10 1l-9 1l-21 1h-19h-10h-10q-81 -5 -155 -41q-35 -18 -67 -42q-17 -12 -31 -25l-9 -9q-7 -6 -12 -12
q-10 -10 1 -19l86 -71q8 -7 17 1l8 8q10 9 21 17q23 16 47 27q49 24 102 26l7 1h6h15l13 -1l7 -1l6 -1q28 -3 49 -12q45 -17 66 -53q11 -18 16 -41q6 -22 6 -50v-2v0v-4v-9l-1 -4q0 -3 -1 -6q0 -8 -4 -22q-6 -21 -18 -40q-24 -35 -77 -68q-34 -21 -111 -59l-34 -16
q-7 -4 -7 -12v-38l-1 -344q0 -13 13 -13h125q12 0 12 13l-1 299q50 25 83 47q36 23 63 47q33 30 56 64q24 38 36 82q7 24 9 43q0 5 1 12v12l1 8v11z" />
    <glyph glyph-name="at" unicode="@" horiz-adv-x="1512" 
d="M620 588q-54 54 -54 129q0 76 54 130t130 54t130 -54t54 -130q0 -75 -54 -129t-130 -54t-130 54zM1168 1184q-92 83 -211 124q-118 42 -242 35q-123 -7 -236 -61q-113 -55 -196 -147q-82 -92 -124 -210q-42 -120 -34 -246q8 -122 61 -233q53 -110 143 -192
q94 -85 214 -127q101 -36 207 -36q96 0 190 30q12 4 8 17l-46 135q-4 11 -16 8q-144 -45 -287 5q-107 37 -183 119q-77 82 -108 193q-26 93 -11 188q19 115 86 205t169 139q171 82 349 19q178 -62 260 -232q82 -169 22 -347l-93 55q21 76 7 154q-20 112 -103 192
q-82 80 -195 96q-84 11 -162 -16q-76 -25 -133 -81t-85 -130q-28 -77 -20 -161q13 -122 101 -210t209 -102q87 -9 166 21q77 29 133 89l232 -137q12 -7 18 5l36 63q28 49 47 102q41 119 34 242q-6 124 -61 237q-54 113 -146 195z" />
    <glyph glyph-name="A" unicode="A" horiz-adv-x="1380" 
d="M505 734l181 435l180 -435h-361zM616 1435q-8 0 -12 -8l-585 -1409q-3 -6 1 -12t11 -6h160q9 0 12 8l229 552h507l229 -552q3 -8 12 -8h160q7 0 11 6t1 12l-585 1409q-3 8 -12 8h-139z" />
    <glyph glyph-name="B" unicode="B" horiz-adv-x="1306" 
d="M356 182v481h392q100 0 170 -70q71 -71 71 -170q0 -100 -71 -170q-70 -71 -170 -71h-392zM356 1250h347q83 0 142 -60q60 -59 60 -142q0 -84 -60 -143q-59 -59 -142 -59h-347v404zM1087 1054q-3 157 -115 267q-112 111 -269 111h-516q-13 0 -13 -13v-1406q0 -13 13 -13
h552q174 0 300 119q127 119 132 291q3 115 -51 214q-53 97 -146 156q116 115 113 274z" />
    <glyph glyph-name="C" unicode="C" horiz-adv-x="1226" 
d="M1104 263q-7 11 -18 4q-131 -85 -289 -85q-222 0 -379 159q-158 159 -155 382q3 206 145 358q143 152 347 168q180 14 330 -83q11 -7 18 4l88 129q7 11 -4 18q-203 132 -447 113q-266 -21 -454 -214q-189 -193 -204 -459q-17 -309 196 -533q100 -106 232 -164
q137 -60 287 -60q214 0 391 116q11 7 4 18z" />
    <glyph glyph-name="D" unicode="D" horiz-adv-x="1485" 
d="M357 183v1069h284q222 0 378 -156q157 -157 157 -378t-157 -378q-156 -157 -378 -157h-284zM187 1435q-13 0 -13 -13v-1409q0 -13 13 -13h442q296 0 510 205t220 499q6 301 -206 516q-211 215 -512 215h-454z" />
    <glyph glyph-name="E" unicode="E" horiz-adv-x="1197" 
d="M187 1432q-13 0 -13 -13v-1406q0 -13 13 -13h930q13 0 13 13v156q0 13 -13 13h-761v443h551q13 0 13 13v156q0 13 -13 13h-551v443h761q13 0 13 13v156q0 13 -13 13h-930z" />
    <glyph glyph-name="F" unicode="F" horiz-adv-x="1075" 
d="M1056 1251q13 0 13 13v157q0 13 -13 13h-869q-13 0 -13 -13v-1408q0 -13 13 -13h157q13 0 13 13v614h542q13 0 13 13v157q0 13 -13 13h-542v441h699z" />
    <glyph glyph-name="G" unicode="G" horiz-adv-x="1462" 
d="M914 740q-13 0 -13 -13v-156q0 -13 13 -13h233v-241q-150 -135 -354 -135q-231 0 -390 170q-159 171 -141 405q15 201 163 343t350 148q229 8 392 -152q9 -9 18 -1l112 109q10 10 1 19q-206 205 -496 208q-286 3 -497 -195t-226 -483q-8 -156 49 -300q55 -138 160 -244
q106 -105 244 -160q144 -56 300 -48q277 15 480 221l14 15q4 4 4 9v481q0 13 -13 13h-403z" />
    <glyph glyph-name="H" unicode="H" horiz-adv-x="1391" 
d="M1039 1432q-13 0 -13 -13v-609h-669v611q0 13 -13 13h-157q-13 0 -13 -13v-1406q0 -13 13 -13h157q13 0 13 13v612h669v-614q0 -13 13 -13h157q13 0 13 13v1406q0 13 -13 13h-157z" />
    <glyph glyph-name="I" unicode="I" horiz-adv-x="539" 
d="M187 1432q-13 0 -13 -13v-1406q0 -13 13 -13h157q13 0 13 13v1406q0 13 -13 13h-157z" />
    <glyph glyph-name="J" unicode="J" horiz-adv-x="1010" 
d="M673 1435q-13 0 -13 -13v-968q0 -112 -80 -192q-79 -79 -191 -79q-70 0 -131 33q-61 34 -98 92q-7 11 -18 5l-136 -79q-11 -7 -4 -18q62 -100 165 -158q104 -58 222 -58q187 0 321 133q133 133 133 321v968q0 13 -13 13h-157z" />
    <glyph glyph-name="K" unicode="K" horiz-adv-x="1216" 
d="M449 721l691 689q6 6 2 14q-3 8 -12 8h-222q-5 0 -9 -4l-542 -540v532q0 13 -13 13h-157q-13 0 -13 -13v-1407q0 -13 13 -13h157q13 0 13 13v544l590 -553q3 -4 9 -4h229q9 0 12 8q4 8 -3 14z" />
    <glyph glyph-name="L" unicode="L" horiz-adv-x="1044" 
d="M357 183v1237q0 13 -13 13h-157q-13 0 -13 -13v-1407q0 -13 13 -13h796q13 0 13 13v157q0 13 -13 13h-626z" />
    <glyph glyph-name="M" unicode="M" horiz-adv-x="1528" 
d="M1274 1432q-15 0 -26 -12l-489 -546l-488 546q-11 12 -26 12h-58q-13 0 -13 -13v-1406q0 -13 13 -13h148q13 0 13 13v1060l402 -449q9 -10 19 0l403 450v-1061q0 -13 13 -13h148q13 0 13 13v1406q0 13 -13 13h-59z" />
    <glyph glyph-name="N" unicode="N" horiz-adv-x="1387" 
d="M1044 1433q-13 0 -13 -13v-1018l-768 1025q-4 6 -10 6h-66q-13 0 -13 -13v-1407q0 -13 13 -13h148q13 0 13 13v1011l763 -1019q4 -5 10 -5h71q13 0 13 13v1407q0 13 -13 13h-148z" />
    <glyph glyph-name="O" unicode="O" horiz-adv-x="1623" 
d="M410 339q-156 156 -156 377q0 220 156 377q156 156 377 156q220 0 377 -156q156 -157 156 -377q0 -221 -156 -377q-157 -156 -377 -156q-221 0 -377 156zM281 1222q-210 -210 -210 -506t210 -506t506 -210t506 210t210 506t-210 506t-506 210t-506 -210z" />
    <glyph glyph-name="P" unicode="P" horiz-adv-x="1215" 
d="M357 800v450h359q94 0 160 -66t66 -159t-66 -159t-160 -66h-359zM187 1433q-13 0 -13 -12v-1408q0 -13 13 -13h157q13 0 13 13v603h351q167 0 289 115q123 116 128 282q5 173 -116 297q-120 123 -293 123h-529z" />
    <glyph glyph-name="Q" unicode="Q" horiz-adv-x="1624" 
d="M1033 326q-2 11 -13 11h-149q-16 0 -12 -16l27 -128q-49 -9 -98 -9q-221 0 -378 157q-156 156 -156 377t156 377q157 157 378 157t377 -157q157 -156 157 -377q0 -147 -76 -273q-73 -123 -197 -193zM281 1224q-210 -210 -210 -506q0 -297 210 -507t507 -210q69 0 137 13
l35 -161q2 -10 13 -10h148q17 0 13 16l-45 209q187 87 300 260q115 177 115 390q0 296 -210 506q-210 211 -506 211q-297 0 -507 -211z" />
    <glyph glyph-name="R" unicode="R" horiz-adv-x="1221" 
d="M356 803v448h357q93 0 159 -65q66 -66 66 -159q0 -92 -66 -158t-159 -66h-357zM802 633q134 32 223 136q90 107 95 246q5 172 -115 295t-292 123h-526q-13 0 -13 -13v-1404q0 -13 13 -13h156q13 0 13 13v605h247l-1 -1l336 -613q3 -7 11 -7h178q8 0 11 6q4 7 1 13z" />
    <glyph glyph-name="S" unicode="S" horiz-adv-x="1097" 
d="M557 848l-3 2q-130 56 -181 100q-61 52 -61 122q0 178 239 178q93 0 176 -39q29 -13 56 -31q10 -7 19 -14q7 -6 13 -12q9 -7 18 1l57 54l56 53q11 10 0 19q-8 8 -18 17q-14 11 -28 21q-39 29 -83 51q-125 62 -266 62q-195 0 -308 -97q-113 -96 -113 -263q0 -154 125 -261
q47 -40 114 -75q26 -14 58 -29l27 -12l25 -11l47 -23l3 -1q148 -65 209 -118q72 -62 72 -145q0 -215 -283 -215q-110 0 -207 46q-35 17 -65 38q-12 8 -22 16q-8 7 -15 13q-9 8 -18 0l-114 -107q-10 -10 0 -19q9 -9 20 -18q15 -12 31 -24q43 -32 92 -57q140 -70 298 -70
q215 0 340 107q125 106 125 290q0 169 -139 287q-52 44 -127 84q-29 15 -64 32l-30 13q-10 5 -29 13z" />
    <glyph glyph-name="T" unicode="T" horiz-adv-x="1059" 
d="M73 1432q-13 0 -13 -13v-156q0 -13 13 -13h376v-1237q0 -13 13 -13h156q13 0 13 13v1237h375q13 0 13 13v156q0 13 -13 13h-933z" />
    <glyph glyph-name="U" unicode="U" horiz-adv-x="1347" 
d="M1011 1432q-13 0 -13 -13v-905q0 -140 -102 -239q-102 -98 -243 -93q-134 5 -228 105q-92 100 -92 236v896q0 13 -13 13h-156q-13 0 -13 -13v-894q0 -217 154 -372q154 -157 369 -153q210 4 358 154t148 360v905q0 13 -13 13h-156z" />
    <glyph glyph-name="V" unicode="V" horiz-adv-x="1150" 
d="M630 310l-381 1109q-4 13 -18 13h-142q-10 0 -16 -8t-3 -18l479 -1393q4 -13 18 -13h127q14 0 18 13l479 1393q3 10 -3 18t-16 8h-142q-14 0 -19 -13z" />
    <glyph glyph-name="W" unicode="W" horiz-adv-x="1507" 
d="M1229 1431q-12 0 -13 -12l-75 -1101l-330 513q-4 6 -11 6h-58q-7 0 -11 -6l-332 -514l-75 1102q-1 12 -13 12h-146q-14 0 -13 -14l96 -1405q1 -12 13 -12h131q7 0 11 6l368 571l368 -571q4 -6 11 -6h129q12 0 13 12l96 1405q1 14 -13 14h-146z" />
    <glyph glyph-name="X" unicode="X" horiz-adv-x="1179" 
d="M975 1431q-8 0 -11 -6l-342 -543l-341 543q-3 6 -11 6h-180q-8 0 -11 -7q-4 -6 0 -13l438 -697l-436 -694q-4 -7 0 -13q4 -7 11 -7h181q7 0 11 6l338 540l339 -540q4 -6 11 -6h181q7 0 11 7q4 6 0 13l-436 694l438 697q4 7 0 13q-4 7 -11 7h-180z" />
    <glyph glyph-name="Y" unicode="Y" horiz-adv-x="1131" 
d="M901 1431q-7 0 -11 -6l-315 -501l-315 501q-3 6 -11 6h-174q-8 0 -11 -7q-4 -6 0 -13l424 -675v-723q0 -13 13 -13h148q13 0 13 13v721l425 677q4 7 0 13q-4 7 -11 7h-175z" />
    <glyph glyph-name="Z" unicode="Z" horiz-adv-x="1111" 
d="M289 183l730 1083q2 3 2 7v146q0 13 -13 13h-873q-13 0 -13 -13v-156q0 -13 13 -13h652l-730 -1084q-2 -3 -2 -7v-146q0 -13 13 -13h963q13 0 13 13v157q0 13 -13 13h-742z" />
    <glyph glyph-name="bracketleft" unicode="[" horiz-adv-x="758" 
d="M561 1346q0 13 -13 13h-242q-13 0 -13 -13v-1257q0 -13 13 -13h242q13 0 13 13v148q0 13 -13 13h-80v934h80q13 0 13 13v149z" />
    <glyph glyph-name="backslash" unicode="\" horiz-adv-x="569" 
d="M162 1435q11 0 12 -11l186 -1409q2 -15 -13 -15h-148q-12 0 -13 11l-186 1409q-2 15 13 15h149z" />
    <glyph glyph-name="bracketright" unicode="]" horiz-adv-x="758" 
d="M293 1197q0 -13 13 -13h81v-934h-81q-13 0 -13 -13v-148q0 -13 13 -13h242q13 0 13 13v1257q0 13 -13 13h-242q-13 0 -13 -13v-149z" />
    <glyph glyph-name="asciicircum" unicode="^" 
d="M620 1430q9 10 18 0l363 -362q9 -10 0 -19l-101 -101q-9 -9 -18 0l-253 253l-253 -253q-9 -9 -18 0l-101 101q-9 9 0 19z" />
    <glyph glyph-name="underscore" unicode="_" horiz-adv-x="1024" 
d="M213 -210q-13 0 -13 13v143q0 13 13 13h670q13 0 13 -13v-143q0 -13 -13 -13h-670z" />
    <glyph glyph-name="grave" unicode="`" horiz-adv-x="1024" 
d="M329 1229q-13 -5 -18 8l-81 212q-4 12 9 17l48 18q13 5 18 -7l81 -211q5 -13 -8 -18z" />
    <glyph glyph-name="a" unicode="a" horiz-adv-x="922" 
d="M278 204q-21 24 -21 78q0 42 27 66q63 56 244 56q41 0 86 -3q-16 -136 -96 -194q-30 -21 -67 -31q-28 -7 -57 -7q-85 0 -116 35zM786 470v0q2 113 -12 180q-20 101 -79 162q-85 87 -244 87q-112 0 -205 -44q-34 -16 -63 -36q-12 -8 -22 -17q-8 -6 -15 -13q-10 -9 0 -19
l106 -97q8 -8 17 0q10 8 23 16q18 11 38 19q55 23 121 23q88 0 123 -37q34 -35 41 -124q-313 20 -442 -95q-85 -75 -85 -193q0 -132 81 -207q81 -74 225 -74q140 0 242 85q4 -38 9 -75q2 -11 13 -11h144q15 0 13 15q-5 34 -9 69q-6 47 -10 92q-12 122 -12 209q0 17 1 52
q1 17 1 33z" />
    <glyph glyph-name="b" unicode="b" horiz-adv-x="1171" 
d="M415 249q-81 80 -84 194v13q3 114 84 194q82 80 196 80q116 0 199 -82q82 -83 82 -199t-82 -198q-83 -82 -199 -82q-114 0 -196 80zM331 800v622q0 13 -13 13h-145q-13 0 -13 -13v-1406q0 -13 13 -13h145q13 0 13 13v83q123 -99 280 -99q194 0 327 142q63 66 95 152
q33 89 27 185q-11 170 -135 291t-295 128q-168 7 -299 -98z" />
    <glyph glyph-name="c" unicode="c" horiz-adv-x="835" 
d="M296 260q-84 92 -72 217q10 96 78 167t163 83q100 13 185 -38q10 -7 17 3l80 118q8 12 -4 19q-126 80 -276 68q-167 -13 -286 -136t-126 -291q-9 -193 124 -332q133 -138 324 -138q131 0 241 70q12 7 4 18l-80 118q-7 10 -18 4q-67 -42 -147 -42q-123 0 -207 92z" />
    <glyph glyph-name="d" unicode="d" horiz-adv-x="1089" 
d="M786 442q-3 -114 -84 -194q-82 -80 -196 -80q-116 0 -198 82q-82 83 -82 199t82 198t198 82q114 0 196 -80q81 -80 84 -194v-13zM786 799q-131 105 -298 98q-171 -7 -295 -128t-135 -291q-12 -195 122 -337q62 -66 145 -103q86 -38 181 -38q157 0 280 98v-83
q0 -13 13 -13h145q13 0 13 13v1405q0 13 -13 13h-145q-13 0 -13 -13v-621z" />
    <glyph glyph-name="e" unicode="e" horiz-adv-x="1019" 
d="M218 496q15 103 88 168q73 66 174 66q96 0 165 -52q69 -51 91 -137zM173 769q-127 -130 -127 -320q0 -186 132 -317q132 -132 317 -132q117 0 219 57q103 57 164 156q7 12 -5 18l-123 72q-11 6 -18 -5q-38 -60 -102 -95q-63 -34 -135 -34q-82 0 -151 44q-68 44 -102 116
l660 57q12 1 12 13v57q0 180 -126 310q-126 131 -305 132q-183 1 -310 -129z" />
    <glyph glyph-name="f" unicode="f" horiz-adv-x="602" 
d="M382 874v246q0 71 44 93q38 19 87 -12q11 -7 18 3l85 114q9 11 -3 19q-63 43 -132 50q-70 8 -131 -23q-64 -32 -101 -97q-36 -65 -36 -147v-246h-129q-13 0 -13 -13v-143q0 -13 13 -13h129v-679q0 -13 13 -13h143q13 0 13 13v679h188q13 0 13 13v143q0 13 -13 13h-188z
" />
    <glyph glyph-name="g" unicode="g" horiz-adv-x="1102" 
d="M309 250q-83 83 -83 199t83 199q82 82 199 82q116 0 199 -82q82 -83 82 -199t-82 -199q-83 -82 -199 -82q-117 0 -199 82zM794 796q-131 109 -301 103q-172 -6 -298 -127q-125 -122 -136 -293q-13 -196 121 -338q63 -67 146 -104q87 -38 182 -38q161 0 286 103v-82
q0 -95 -54 -172q-56 -78 -145 -105q-92 -28 -182 6q-87 33 -137 112q-7 11 -18 4l-124 -71q-11 -7 -4 -18q61 -99 163 -157q103 -57 220 -57q186 0 318 132t132 318v876q0 13 -13 13h-143q-13 0 -13 -13v-92z" />
    <glyph glyph-name="h" unicode="h" horiz-adv-x="1027" 
d="M920 397v27v29q0 33 -1 58v15v19q-2 20 -5 38q-6 40 -21 76q-30 77 -89 133t-136 82q-38 12 -77 16q-4 1 -10 1l-11 1h-5h-4l-7 1h-6l-5 -1h-9h-10l-9 -1q-73 -8 -137 -43q-23 -12 -47 -30v604q0 13 -13 13h-145q-13 0 -13 -13v-1406q0 -14 13 -14h145q13 0 13 14v457
l2 51q1 5 1 15l1 5v3v3q1 7 4 18q5 24 16 47q14 29 35 52q27 28 60 45q37 20 79 23h6h5h6h2h2h7h7l4 -1h5q22 -3 44 -10q43 -15 76 -48q33 -32 50 -75q7 -21 11 -43q1 -10 2 -22v-10v-15v-58l-1 -29v-27v-102q-1 -126 -2 -211v-71q0 -13 13 -13h143q13 0 13 13v71
q-1 85 -1 211q-1 37 -1 102z" />
    <glyph glyph-name="i" unicode="i" horiz-adv-x="452" 
d="M179 898q-13 0 -13 -13v-872q0 -13 13 -13h142q13 0 13 13v872q0 13 -13 13h-142zM318 1091q28 29 28 69t-28 68t-68 28t-68 -28q-29 -28 -29 -68t29 -69q28 -28 68 -28t68 28z" />
    <glyph glyph-name="j" unicode="j" horiz-adv-x="486" 
d="M182 1226q-28 -29 -28 -69q0 -39 28 -68q29 -28 69 -28q39 0 68 28q28 29 28 68q0 40 -28 69q-29 28 -68 28q-40 0 -69 -28zM166 -80q0 -71 -44 -93q-38 -19 -87 12q-10 7 -17 -3l-86 -114q-8 -11 3 -18q76 -52 158 -52q56 0 105 25q64 32 100 96q37 65 37 147v965
q0 13 -13 13h-143q-13 0 -13 -13v-965z" />
    <glyph glyph-name="k" unicode="k" horiz-adv-x="933" 
d="M631 901q-6 0 -9 -4l-291 -277v802q0 13 -13 13h-145q-13 0 -13 -13v-1408q0 -13 13 -13h145q13 0 13 13v368l43 41l346 -417q3 -5 10 -5h189q8 0 11 8q4 7 -1 14l-431 519l352 336q7 6 3 15q-3 8 -12 8h-210z" />
    <glyph glyph-name="l" unicode="l" horiz-adv-x="464" 
d="M319 0q13 0 13 13v1409q0 13 -13 13h-146q-13 0 -13 -13v-1409q0 -13 13 -13h146z" />
    <glyph glyph-name="m" unicode="m" horiz-adv-x="1581" 
d="M1447 393v27v28q-1 31 -1 57v29q0 20 -2 39q-5 39 -18 76q-26 76 -82 134q-56 57 -132 86q-37 13 -76 19l-9 1q-6 0 -10 1h-6h-5q-6 1 -8 1h-8h-2h-4h-4l-19 -1q-73 -6 -137 -39q-57 -30 -100 -78q-10 -11 -19 -23q-14 18 -29 33q-56 57 -132 86q-37 13 -76 19l-9 1
q-6 0 -10 1h-5h-6q-6 1 -8 1h-8h-2h-4h-4l-19 -1q-73 -6 -137 -39q-21 -11 -45 -28v67q0 13 -13 13h-145q-13 0 -13 -13v-877q0 -13 13 -13h145q13 0 13 13v507l1 12q0 5 1 14v5v3l1 3q1 7 3 18q5 23 16 45q14 28 35 50q55 59 136 63l10 1h3h1l8 -1h6h2h2q1 -1 5 -1l5 -1
q22 -3 42 -11q42 -16 72 -49q31 -32 45 -74q7 -21 9 -42l1 -21v-29q0 -26 -1 -57v-28v-27q0 -68 -1 -100q0 -124 -1 -207v-71q0 -13 13 -13h143q13 0 13 13v71q-1 83 -1 207q0 19 -1 47v25v26q0 65 -1 109l2 32v14l1 5v3l1 3q1 7 3 18q5 23 16 45q14 28 35 50q55 59 136 63
h5l5 1h3h1l8 -1h6h2h2q1 -1 5 -1l5 -1q22 -3 42 -11q42 -16 72 -49q31 -32 45 -74q7 -21 9 -42l1 -21v-29q-1 -26 -1 -57v-28v-27q-1 -68 -1 -100l-1 -207v-71q0 -13 13 -13h143q13 0 13 13v71q-1 83 -2 207v100z" />
    <glyph glyph-name="n" unicode="n" 
d="M880 393l-1 27v28v57v29q0 20 -3 39q-4 39 -17 76q-26 76 -83 134q-55 58 -132 86q-36 13 -75 19l-10 1q-5 1 -10 1h-5l-5 1h-9h-7h-2h-4h-5h-9l-9 -1q-73 -6 -137 -39q-22 -11 -45 -28v68q0 13 -13 13h-146q-13 0 -13 -13v-878q0 -13 13 -13h146q13 0 13 13v507v12
q1 5 1 14l1 5v3v4q1 6 4 17q5 23 16 45q13 28 35 50q55 60 135 63l5 1h6h2h2l7 -1h6h2h3q1 0 4 -1l6 -1q22 -3 41 -11q43 -16 73 -48q31 -33 45 -75q6 -20 8 -42l1 -21v-29v-57v-28v-27q-1 -67 -1 -100q-1 -124 -1 -207l-1 -71q0 -13 13 -13h144q13 0 13 13l-1 71
q0 83 -1 207v100z" />
    <glyph glyph-name="o" unicode="o" horiz-adv-x="1051" 
d="M298 254q-83 82 -83 199q0 116 83 198q82 83 198 83q117 0 199 -83q83 -82 83 -198q0 -117 -83 -199q-82 -83 -199 -83q-116 0 -198 83zM178 771q-132 -132 -132 -318q0 -187 132 -319q132 -131 318 -131q187 0 318 131q132 132 132 319q0 186 -132 318
q-131 131 -318 131q-186 0 -318 -131z" />
    <glyph glyph-name="p" unicode="p" horiz-adv-x="1121" 
d="M399 249q-82 80 -84 194v12q2 115 84 195t196 80q116 0 199 -82q82 -83 82 -199t-82 -198q-83 -82 -199 -82q-114 0 -196 80zM315 800v83q0 13 -13 13h-145q-13 0 -13 -13v-1406q0 -13 13 -13h145q13 0 13 13v622q123 -99 280 -99q194 0 327 141q63 67 95 153
q33 89 26 185q-11 170 -135 291t-294 128q-168 7 -299 -98z" />
    <glyph glyph-name="q" unicode="q" horiz-adv-x="1091" 
d="M501 169q-116 0 -199 82q-82 82 -82 198t82 199q83 82 199 82q114 0 196 -80q81 -80 84 -195v-12q-3 -114 -84 -194q-82 -80 -196 -80zM482 898q-171 -7 -295 -128t-134 -291q-7 -96 26 -185q32 -86 95 -153q133 -141 327 -141q157 0 280 99v-622q0 -13 13 -13h145
q13 0 13 13v1406q0 13 -13 13h-145q-13 0 -13 -13v-83q-131 105 -299 98z" />
    <glyph glyph-name="r" unicode="r" horiz-adv-x="602" 
d="M311 889q0 13 -13 13h-145q-13 0 -13 -13v-876q0 -13 13 -13h145q13 0 13 13v542q9 73 64 122q55 50 129 50q14 0 27 -2q12 -2 15 10l29 140q2 13 -11 15q-29 5 -60 5q-104 0 -193 -56v50z" />
    <glyph glyph-name="s" unicode="s" horiz-adv-x="732" 
d="M660 285q0 5 -2 14l-2 14q-12 58 -52 104q-30 36 -79 66q-32 21 -79 42l-35 15l-18 9l-12 5l-8 4q-40 17 -63 30q-27 16 -41 31l-3 4l-3 4l-4 7l-2 3l-1 3l-1 4v1v1h-1v1l-1 9v5v0v5v5l1 5l1 5l1 4q4 16 14 26t27 18q16 6 41 10h4l5 1h13l11 1l11 -1q15 0 38 -4
q30 -7 58 -21q6 -4 16 -10q7 -5 15 -11q9 -7 17 1l92 89q10 10 -1 19l-10 10q-11 9 -24 17q-15 11 -33 20q-47 25 -98 37q-35 7 -63 8l-17 1l-17 -1q-9 0 -36 -2q-44 -6 -79 -19q-49 -19 -82 -54q-39 -38 -54 -94q-5 -17 -6 -26q-2 -15 -2 -26l-1 -13v-1q0 2 0 1v-2v-4v-1
v-2l1 -5v-9q1 -8 3 -17l1 -8l2 -8l4 -15q2 -6 5 -14l7 -14q5 -11 15 -25l8 -12q5 -7 9 -11q31 -34 80 -63q30 -18 78 -40l9 -3v-1l3 -1l4 -2l18 -8l37 -17q75 -35 101 -66q13 -16 16 -33l1 -5q1 -2 0 -4l1 -5v-2v-2l-1 -9v-2v-3v-3l-1 -3l-1 -4q-8 -35 -41 -53
q-16 -8 -41 -14q-28 -4 -47 -4l-9 -1l-14 1q-7 0 -13 1h-4l-4 1q-3 0 -9 1l-5 1l-5 1l-9 2l-9 3q-30 8 -58 24l-15 10q-7 5 -15 12q-9 6 -17 -1l-104 -99q-10 -10 0 -19q11 -11 25 -21q20 -15 43 -28q45 -26 95 -39q34 -9 64 -13q11 -1 18 -2h16l14 -1h2h5h4h9q33 1 76 9
q47 11 84 30q48 24 80 66q34 44 45 100l2 15l2 15v6l1 2v3v9v9v7z" />
    <glyph glyph-name="t" unicode="t" horiz-adv-x="640" 
d="M363 256v477h137q13 0 13 13v142q0 13 -13 13h-137v189q0 13 -13 13h-143q-13 0 -13 -13l1 -189h-137q-13 0 -13 -13v-142q0 -13 13 -13h137v-477q0 -78 34 -140q35 -62 96 -92q48 -24 101 -24q78 0 149 49q12 7 3 18l-85 114q-7 10 -17 4q-43 -27 -75 -11q-38 19 -38 82
z" />
    <glyph glyph-name="u" unicode="u" horiz-adv-x="997" 
d="M694 370l-1 -11l-1 -15v-5v-3l-1 -3q-1 -7 -3 -18q-6 -24 -16 -45q-14 -29 -36 -51q-56 -59 -138 -62h-5h-5l-13 1h-9l-5 1l-6 1q-21 4 -42 12q-41 17 -72 51q-30 34 -42 77q-6 21 -8 43v24v14v15v58v28l1 27v101q1 126 1 209l1 71q0 14 -13 14h-143q-13 0 -13 -14v-71
q0 -83 1 -209v-48l1 -26v-27v-113v-14v-15q1 -19 2 -36q3 -40 14 -78q24 -77 80 -138t131 -90q37 -14 76 -21l9 -1l10 -1l10 -1l11 -1h15h5h2h5l9 1q73 4 139 37q24 12 49 30v-48q0 -13 13 -13h145q13 0 13 13v876q0 13 -13 13h-145q-13 0 -13 -13v-526z" />
    <glyph glyph-name="v" unicode="v" horiz-adv-x="849" 
d="M426 318l-215 581q-3 8 -13 8h-155q-7 0 -10 -5q-4 -6 -2 -12l326 -878q3 -9 12 -9h114q10 0 13 9l325 878q3 6 -1 12q-4 5 -11 5h-155q-9 0 -12 -8z" />
    <glyph glyph-name="w" unicode="w" horiz-adv-x="1336" 
d="M931 328l-185 570q-3 9 -13 9h-126q-10 0 -13 -9l-185 -570l-198 571q-3 8 -13 8h-154q-7 0 -11 -5q-4 -6 -2 -12l309 -878q3 -9 13 -9h106q10 0 13 9l198 595l198 -595q3 -9 13 -9h106q9 0 13 9l309 878q2 6 -2 12q-4 5 -11 5h-155q-9 0 -12 -8z" />
    <glyph glyph-name="x" unicode="x" horiz-adv-x="984" 
d="M733 900q-7 0 -11 -6l-223 -299l-223 299q-4 6 -10 6h-183q-8 0 -12 -8q-3 -7 1 -13l319 -429l-319 -429q-4 -7 -1 -14q4 -7 12 -7h183q6 0 10 5l223 300l223 -300q4 -5 11 -5h183q8 0 11 7q4 7 -1 14l-319 429l319 429q5 6 1 13q-3 8 -11 8h-183z" />
    <glyph glyph-name="y" unicode="y" horiz-adv-x="937" 
d="M475 265l-262 631q-3 8 -12 8h-157q-7 0 -11 -6q-4 -5 -1 -12l351 -848l-152 -378q-2 -7 2 -12q3 -6 10 -6h157q9 0 12 8l497 1236q3 7 -1 12q-4 6 -11 6h-157q-8 0 -12 -8z" />
    <glyph glyph-name="z" unicode="z" horiz-adv-x="896" 
d="M304 169l502 576q3 4 3 9v133q0 13 -13 13h-699q-13 0 -13 -13v-143q0 -13 13 -13h473l-498 -571q-4 -4 -4 -9v-138q0 -13 13 -13h723q13 0 13 13v143q0 13 -13 13h-500z" />
    <glyph glyph-name="braceleft" unicode="{" 
d="M216 1q-12 -4 -17 8l-26 66q-87 218 -104 515l-68 138q-2 6 0 12l71 140q20 276 101 480l26 66q5 12 17 7l133 -52q12 -5 7 -17l-26 -66q-74 -187 -91 -447l-1 -17l-51 -101l49 -99l1 -18q14 -279 93 -479l26 -66q5 -12 -7 -17z" />
    <glyph glyph-name="bar" unicode="|" 
d="M15 -90q-15 0 -15 15v1566q0 16 15 16h75q15 0 15 -16v-1566q0 -15 -15 -15h-75z" />
    <glyph glyph-name="braceright" unicode="}" 
d="M9 54q-12 5 -8 17l27 66q78 200 92 479l1 18l49 99l-51 101l-1 17q-17 260 -90 447l-27 66q-4 12 8 17l132 52q13 5 17 -7l27 -66q80 -204 101 -480l70 -140q3 -6 0 -12l-68 -138q-17 -297 -103 -515l-27 -66q-4 -12 -17 -8z" />
    <glyph glyph-name="asciitilde" unicode="~" horiz-adv-x="825" 
d="M1668 821q-36 0 -80 -6l-40 -5l-39 -6q-98 -15 -146 -15q-54 0 -99 14l-38 12q-6 2 -12 -2q-5 -4 -5 -11v-151q0 -9 9 -12l21 -7q57 -18 124 -18q36 0 81 6l39 5l39 6q99 15 146 15q54 0 99 -14l38 -12q7 -2 12 2t5 11v148q0 7 -7 11q-15 8 -23 11q-57 18 -124 18z" />
    <glyph glyph-name="exclamdown" unicode="&#xa1;" horiz-adv-x="676" 
d="M433 1022q26 27 26 65q0 37 -26 64q-27 26 -64 26t-64 -26q-26 -27 -26 -64q0 -38 26 -64q27 -27 64 -27t64 26zM293 13q0 -13 14 -13h125q13 0 13 13v851q0 13 -13 13h-125q-14 0 -14 -13v-851z" />
    <glyph glyph-name="cent" unicode="&#xa2;" horiz-adv-x="1139" 
d="M240 904q61 69 149 88l-144 -466q-87 93 -75 220q9 90 70 158zM615 474q-7 10 -18 4q-67 -42 -147 -42q-30 0 -59 7l165 535q22 -9 40 -20q11 -7 18 3l80 118q8 12 -4 19q-38 24 -84 41l86 279q2 6 -2 12q-4 5 -10 5h-145q-9 0 -12 -9l-80 -259l-29 -1
q-168 -13 -287 -136q-119 -124 -127 -292q-5 -118 48 -222q50 -101 143 -166l-103 -333q-2 -6 2 -12q4 -5 10 -5h145q9 0 12 9l84 272q54 -14 109 -14q131 0 241 71q12 7 4 18z" />
    <glyph glyph-name="sterling" unicode="&#xa3;" 
d="M902 1005q11 -8 18 2l93 109q9 10 -2 19q-91 71 -207 71q-118 0 -211 -76q-93 -75 -117 -191l-167 -690q-2 -6 2 -11t11 -5h632q13 0 13 13v143q0 13 -13 13h-434l31 126h227q13 0 13 13v144q0 13 -13 13h-187l12 49h175q13 0 13 13v143q0 13 -13 13h-134q16 53 60 87
q45 33 100 33t98 -31z" />
    <glyph glyph-name="currency" unicode="&#xa4;" horiz-adv-x="168" 
d="M834 564q-41 -40 -99 -57q-28 -8 -58 -8q-29 0 -58 8q-58 17 -99 57q-41 41 -57 100q-9 28 -9 56q0 30 10 60q17 58 56 98q40 39 98 56q29 9 58 9q30 0 58 -8q59 -17 100 -57q40 -41 57 -99q9 -29 9 -58t-9 -58q-17 -58 -57 -99zM1004 721q0 43 -12 85q-17 56 -48 102
l103 103q14 14 0 28l-52 53q-14 14 -28 0l-104 -104q-45 31 -102 48q-42 12 -83 12q-45 0 -89 -14q-55 -16 -99 -46l-104 104q-14 14 -28 0l-52 -53q-14 -14 0 -28l104 -104q-31 -44 -47 -99q-13 -44 -13 -87q0 -42 12 -84q16 -57 48 -103l-104 -103q-14 -14 0 -28l52 -53
q14 -14 28 0l104 104q45 -32 102 -48q43 -12 85 -12q43 0 85 12q56 16 101 48l104 -104q14 -14 28 0l52 53q14 14 0 28l-103 103q31 46 48 102q12 42 12 85z" />
    <glyph glyph-name="yen" unicode="&#xa5;" horiz-adv-x="1262" 
d="M563 847h-208l-36 88h280zM461 592l-67 161h132zM772 1343q-9 0 -13 -9l-122 -305h-357l-127 305q-4 9 -13 9h-72q-7 0 -12 -6q-4 -7 -1 -13l122 -295h-56q-14 0 -14 -14v-66q0 -14 14 -14h96l36 -88h-132q-14 0 -14 -14v-66q0 -14 14 -14h171l119 -286l-145 -358
q-2 -7 2 -13t11 -6h72q10 0 13 8l263 655h174q14 0 14 14v66q0 14 -14 14h-136l35 88h101q14 0 14 14v66q0 14 -14 14h-63l119 295q3 7 -2 13q-4 6 -11 6h-72z" />
    <glyph glyph-name="brokenbar" unicode="&#xa6;" 
d="M427 371h160v-789h-160v789zM427 1578h160v-789h-160v789z" />
    <glyph glyph-name="section" unicode="&#xa7;" 
d="M337 576q-66 29 -66 53v5v6q2 7 7 13q13 14 51 14v1q73 2 116 40q43 39 43 103q0 61 -49 103q-19 16 -45 30q-10 5 -21 10l-10 5l-10 4l-16 8q-66 28 -66 53v5v6q2 7 7 12q13 15 51 15q21 0 41 -7q7 -3 15 -7q5 -3 10 -7q10 -6 18 2l48 47q11 10 -1 20q-9 8 -19 14
q-14 9 -29 15q-39 17 -83 17q-69 0 -111 -36t-42 -96q0 -56 45 -95q17 -14 41 -27q8 -5 19 -9l9 -5l9 -3l16 -8q45 -19 62 -34q17 -14 17 -32v-3v-3q0 -4 -1 -8q-2 -9 -8 -16q-17 -20 -64 -20v0q-66 -2 -105 -38q-40 -35 -40 -94q0 -56 45 -94q17 -15 41 -27q8 -5 19 -10
l9 -4l9 -4l16 -8q45 -19 62 -33q17 -15 17 -33v-3v-3q0 -4 -1 -7q-2 -10 -8 -17q-17 -19 -64 -19q-26 0 -49 9q-10 3 -18 8q-7 4 -13 8q-9 7 -17 -1l-49 -46q-11 -11 0 -21q10 -8 22 -15q15 -10 32 -17q43 -19 92 -19q76 0 122 39q45 39 45 104q0 61 -49 104q-19 15 -45 29
q-10 5 -21 11l-10 4l-10 4z" />
    <glyph glyph-name="dieresis" unicode="&#xa8;" horiz-adv-x="1024" 
d="M625 1709q-28 -28 -68 -28t-68 28t-28 68t28 68t68 28t68 -28t28 -68t-28 -68zM883 1709q-28 -28 -68 -28q-39 0 -67 28q-29 28 -29 68t29 68q28 28 67 28q40 0 68 -28q29 -28 29 -68t-29 -68z" />
    <glyph glyph-name="copyright" unicode="&#xa9;" horiz-adv-x="1197" 
d="M424 551q-70 73 -67 174q2 94 71 162t164 69q67 1 125 -33q12 -7 4 -19l-38 -56q-7 -10 -18 -4q-43 24 -94 16q-47 -8 -81 -44t-38 -84q-6 -64 37 -111t106 -47q38 0 70 18q11 6 18 -5l38 -55q8 -12 -4 -19q-56 -34 -122 -34q-100 0 -171 72zM315 988
q-112 -112 -112 -270t112 -270t270 -112t270 112t112 270t-112 270t-270 112t-270 -112zM248 381q-139 140 -139 337t139 337q140 140 337 140t337 -140t140 -337t-140 -337t-337 -140t-337 140z" />
    <glyph glyph-name="ordfeminine" unicode="&#xaa;" horiz-adv-x="648" 
 />
    <glyph glyph-name="guillemotleft" unicode="&#xab;" horiz-adv-x="944" 
d="M631 708q-9 9 0 19l363 363q10 9 19 0l101 -101q9 -10 0 -19l-253 -253l253 -252q9 -10 0 -19l-101 -101q-9 -9 -19 0zM215 708q-9 9 0 19l363 363q10 9 19 0l101 -101q9 -10 0 -19l-253 -253l253 -252q9 -10 0 -19l-101 -101q-9 -9 -19 0z" />
    <glyph glyph-name="logicalnot" unicode="&#xac;" 
d="M87 767h840v-491l-1 -1h-98v392h-741v100z" />
    <glyph glyph-name="registered" unicode="&#xae;" horiz-adv-x="1674" 
d="M609 836h72q15 0 26 -11t11 -26t-11 -26t-26 -11h-72v74zM801 503q8 0 12 7q4 6 1 13l-75 158q35 18 55 52q21 35 18 76q-4 51 -44 87q-39 34 -92 34h-148q-14 0 -14 -13v-400q0 -14 14 -14h67q14 0 14 14v151h32l74 -157q3 -8 12 -8h74zM385 986q-112 -111 -112 -269
t112 -270t270 -112t269 112q112 112 112 270t-112 269q-111 112 -269 112t-270 -112zM318 380q-139 140 -139 337t139 336q140 140 337 140t336 -140q140 -139 140 -336t-140 -337q-139 -139 -336 -139t-337 139z" />
    <glyph glyph-name="macron" unicode="&#xaf;" horiz-adv-x="2048" 
d="M227 1233q-13 0 -13 13v143q0 13 13 13h1071q13 0 13 -13v-143q0 -13 -13 -13h-1071z" />
    <glyph glyph-name="degree" unicode="&#xb0;" horiz-adv-x="674" 
d="M339 1372q-86 0 -147.5 -61t-61.5 -148t61 -147t148 -60t147 60t60 147t-60.5 148t-146.5 61zM339 1442q115 0 196 -81.5t81 -196.5q0 -114 -82 -196t-197 -82q-117 0 -197 81t-80 197t81.5 197t197.5 81z" />
    <glyph glyph-name="plusminus" unicode="&#xb1;" 
d="M738 982v251q0 13 -13 13h-143q-13 0 -13 -13v-251h-251q-13 0 -13 -13v-143q0 -13 13 -13h251v-251q0 -13 13 -13h143q13 0 13 13v251h251q13 0 13 13v143q0 13 -13 13h-251zM987 255q13 0 13 13v143q0 13 -13 13h-671q-13 0 -13 -13v-143q0 -13 13 -13h671z" />
    <glyph glyph-name="uni00B2" unicode="&#xb2;" 
 />
    <glyph glyph-name="uni00B3" unicode="&#xb3;" 
 />
    <glyph glyph-name="acute" unicode="&#xb4;" horiz-adv-x="1024" 
d="M305 1237l81 212q4 12 -9 17l-48 18q-13 5 -18 -7l-81 -211q-4 -13 9 -18l48 -19q13 -5 18 8z" />
    <glyph glyph-name="mu" unicode="&#xb5;" horiz-adv-x="1180" 
d="M207 875q14 0 14 -14v-476v0l2 -41v-16l1 -7q0 -4 1 -8q1 -12 3 -22q6 -29 20 -57q16 -35 43 -64q32 -33 74 -54q46 -23 98 -25h13h14l13 1l13 2q28 4 53 14q53 21 92 63q38 41 56 96q8 25 10 53q1 11 1 28v31v120v28v27v52q-1 133 -1 221v34q0 13 14 13h67q14 0 13 -13
v-34v-221v-25v-27q-1 -30 -1 -55v-120v-31v-17q-1 -11 -2 -19q-3 -38 -14 -73q-25 -74 -77 -130q-53 -56 -125 -84q-35 -13 -72 -19l-18 -2l-19 -1h-8l-4 -1h-3h-2l-18 1q-70 5 -132 36q-56 28 -97 74l-4 5l-4 4v-268q0 -14 -14 -14h-67q-13 0 -13 14v1007q0 14 13 14h67z
" />
    <glyph glyph-name="paragraph" unicode="&#xb6;" horiz-adv-x="1024" 
d="M484 1221q-125 0 -200 -67t-75 -177q0 -107 71 -173t193 -72v-504q0 -14 14 -14h31q14 0 14 14v944h117v-944q0 -14 13 -14h30q14 0 14 14v944h75q14 0 14 14v22q0 13 -14 13h-297z" />
    <glyph glyph-name="periodcentered" unicode="&#xb7;" horiz-adv-x="508" 
d="M398 650q-28 29 -28 69t28 68q29 29 69 29t68 -29q29 -28 29 -68t-29 -69q-28 -28 -68 -28t-69 28z" />
    <glyph glyph-name="periodcentered" unicode="&#x2219;" horiz-adv-x="508" 
d="M398 650q-28 29 -28 69t28 68q29 29 69 29t68 -29q29 -28 29 -68t-29 -69q-28 -28 -68 -28t-69 28z" />
    <glyph glyph-name="uni00B9" unicode="&#xb9;" 
 />
    <glyph glyph-name="ordmasculine" unicode="&#xba;" horiz-adv-x="718" 
 />
    <glyph glyph-name="guillemotright" unicode="&#xbb;" horiz-adv-x="944" 
d="M335 345q-10 -9 -19 0l-101 101q-9 9 0 19l253 252l-253 253q-9 9 0 19l101 101q9 9 19 0l363 -363q9 -10 0 -19zM751 345q-10 -9 -19 0l-101 101q-9 9 0 19l253 252l-253 253q-9 9 0 19l101 101q9 9 19 0l363 -363q9 -10 0 -19z" />
    <glyph glyph-name="onequarter" unicode="&#xbc;" horiz-adv-x="1708" 
 />
    <glyph glyph-name="onehalf" unicode="&#xbd;" horiz-adv-x="1964" 
 />
    <glyph glyph-name="threequarters" unicode="&#xbe;" horiz-adv-x="1708" 
 />
    <glyph glyph-name="questiondown" unicode="&#xbf;" horiz-adv-x="748" 
d="M560 1050q36 0 62 26t26 62t-26 62t-62 26t-62 -26t-26 -62t26 -62t62 -26zM237 297q1 -44 11 -82q10 -45 33 -82q24 -40 61 -69q35 -27 78 -42q36 -14 81 -19l10 -1l9 -1l21 -1h19h10h10q81 5 155 41q35 18 67 42q17 12 31 25l9 9q7 6 12 12q10 10 -1 19l-86 71
q-8 7 -17 -1l-8 -8q-10 -9 -21 -17q-23 -16 -47 -27q-49 -24 -102 -26l-7 -1h-6h-15l-13 1l-7 1l-6 1q-28 3 -49 12q-45 17 -66 53q-11 18 -16 41q-6 22 -6 50v2v0v4v9l1 4q0 3 1 6q0 8 4 22q6 21 18 40q24 35 77 68q34 21 111 59l34 16q7 4 7 12v38l1 344q0 13 -13 13h-125
q-12 0 -12 -13l1 -299q-50 -25 -83 -47q-36 -23 -63 -47q-33 -30 -56 -64q-24 -38 -36 -82q-7 -24 -9 -43q0 -5 -1 -12v-12l-1 -8v-11z" />
    <glyph glyph-name="Agrave" unicode="&#xc0;" horiz-adv-x="1377" 
d="M504 732l180 435l181 -435h-361zM765 1424q-3 8 -12 8h-138q-8 0 -12 -8l-584 -1406q-3 -6 1 -12t11 -6h160q9 0 12 8l229 551h505l229 -551q3 -8 12 -8h160q7 0 10 6q4 6 2 12zM921 1712q12 -3 10 -15l-20 -140q-2 -11 -15 -10l-448 67q-12 1 -10 14l21 140q2 12 14 10z
" />
    <glyph glyph-name="Aacute" unicode="&#xc1;" horiz-adv-x="1377" 
d="M504 732l180 435l181 -435h-361zM765 1424q-3 8 -12 8h-138q-8 0 -12 -8l-584 -1406q-3 -6 1 -12t11 -6h160q9 0 12 8l229 551h505l229 -551q3 -8 12 -8h160q7 0 10 6q4 6 2 12zM896 1778q12 2 14 -10l21 -140q2 -13 -10 -14l-448 -67q-13 -1 -15 10l-20 140q-2 12 10 15
z" />
    <glyph glyph-name="Acircumflex" unicode="&#xc2;" horiz-adv-x="1377" 
d="M504 732l180 435l181 -435h-361zM765 1424q-3 8 -12 8h-138q-8 0 -12 -8l-584 -1406q-3 -6 1 -12t11 -6h160q9 0 12 8l229 551h505l229 -551q3 -8 12 -8h160q7 0 10 6q4 6 2 12zM680 1762q6 2 9 0l271 -110q11 -5 6 -17l-53 -130q-6 -11 -16 -7l-214 88l-212 -85
q-12 -5 -17 7l-52 131q-4 11 7 16z" />
    <glyph glyph-name="Atilde" unicode="&#xc3;" horiz-adv-x="1377" 
d="M947 1744q8 -2 22 -10q7 -4 7 -11v-141q0 -6 -5 -10t-11 -2l-37 12q-41 13 -94 13q-45 0 -139 -15l-37 -6l-38 -5q-42 -5 -76 -5q-64 0 -119 17l-19 7q-9 2 -9 12v143q0 7 5 10q5 4 11 2l37 -11q42 -14 94 -14q46 0 139 15l37 6l37 5q43 5 77 5q65 0 118 -17zM504 732
l180 435l181 -435h-361zM765 1424q-3 8 -12 8h-138q-8 0 -12 -8l-584 -1406q-3 -6 1 -12t11 -6h160q9 0 12 8l229 551h505l229 -551q3 -8 12 -8h160q7 0 10 6q4 6 2 12z" />
    <glyph glyph-name="Adieresis" unicode="&#xc4;" horiz-adv-x="1377" 
d="M504 732l180 435l181 -435h-361zM765 1424q-3 8 -12 8h-138q-8 0 -12 -8l-584 -1406q-3 -6 1 -12t11 -6h160q9 0 12 8l229 551h505l229 -551q3 -8 12 -8h160q7 0 10 6q4 6 2 12zM651 1643q0 40 -28 68t-68 28t-68 -28t-28 -68t28 -68t68 -28t68 28t28 68zM910 1643
q0 40 -29 68q-28 28 -68 28q-39 0 -67 -28q-29 -28 -29 -68t29 -68q28 -28 67 -28q40 0 68 28q29 28 29 68z" />
    <glyph glyph-name="Aring" unicode="&#xc5;" horiz-adv-x="1377" 
d="M504 732l180 435l181 -435h-361zM765 1424q-3 8 -12 8h-138q-8 0 -12 -8l-584 -1406q-3 -6 1 -12t11 -6h160q9 0 12 8l229 551h505l229 -551q3 -8 12 -8h160q7 0 10 6q4 6 2 12zM684 1629q-20 0 -35 14q-14 14 -14 35q0 19 14 34q14 14 35 14q20 0 35 -14q14 -15 14 -34
q0 -20 -14 -35q-15 -14 -35 -14zM684 1845q-69 0 -118 -49t-49 -118q0 -70 49 -119t118 -49t118 49q50 49 50 119q0 69 -50 118q-49 49 -118 49z" />
    <glyph glyph-name="AE" unicode="&#xc6;" horiz-adv-x="1838" 
d="M815 807h-280l184 443h96v-443zM1758 1250q13 0 13 13v156q0 13 -13 13h-1143q-8 0 -12 -8l-584 -1406q-3 -6 1 -12t11 -6h160q9 0 12 8l256 617h356v-612q0 -13 13 -13h930q13 0 13 13v156q0 13 -13 13h-761v443h551q13 0 13 13v156q0 13 -13 13h-551v443h761z" />
    <glyph glyph-name="Ccedilla" unicode="&#xc7;" horiz-adv-x="1231" 
d="M1109 261q-7 10 -18 3q-131 -85 -289 -85q-222 0 -379 159q-158 160 -155 383q3 205 145 357q143 152 347 168q180 14 330 -82q11 -7 18 3l88 130q7 11 -4 18q-203 132 -447 113q-266 -21 -454 -214q-189 -193 -204 -460q-16 -287 171 -505q184 -215 464 -247v-117
q0 -15 15 -15h37q30 0 48 -24q18 -25 9 -55q-9 -29 -38 -38q-27 -8 -50 6q-22 13 -28 38q-2 13 -15 13h-74q-17 0 -15 -17q6 -64 54 -106q49 -43 114 -41q64 2 110 49q47 46 49 110q1 55 -31 100q-31 43 -81 60v33q201 7 367 115q11 7 4 18z" />
    <glyph glyph-name="Egrave" unicode="&#xc8;" horiz-adv-x="1197" 
d="M187 1432q-13 0 -13 -13v-1406q0 -13 13 -13h930q13 0 13 13v156q0 13 -13 13h-761v443h551q13 0 13 13v156q0 13 -13 13h-551v443h761q13 0 13 13v156q0 13 -13 13h-930zM888 1711q12 -2 10 -14l-20 -140q-2 -11 -15 -10l-448 66q-12 2 -10 15l21 139q2 12 14 10z" />
    <glyph glyph-name="Eacute" unicode="&#xc9;" horiz-adv-x="1197" 
d="M187 1432q-13 0 -13 -13v-1406q0 -13 13 -13h930q13 0 13 13v156q0 13 -13 13h-761v443h551q13 0 13 13v156q0 13 -13 13h-551v443h761q13 0 13 13v156q0 13 -13 13h-930zM863 1777q12 2 14 -10l21 -139q2 -13 -10 -15l-448 -66q-13 -1 -15 10l-20 140q-2 12 10 14z" />
    <glyph glyph-name="Ecircumflex" unicode="&#xca;" horiz-adv-x="1197" 
d="M187 1432q-13 0 -13 -13v-1406q0 -13 13 -13h930q13 0 13 13v156q0 13 -13 13h-761v443h551q13 0 13 13v156q0 13 -13 13h-551v443h761q13 0 13 13v156q0 13 -13 13h-930zM648 1762q5 2 9 0l270 -110q11 -5 7 -17l-54 -130q-5 -11 -16 -7l-213 88l-213 -85q-12 -5 -16 7
l-52 131q-5 11 7 16z" />
    <glyph glyph-name="Edieresis" unicode="&#xcb;" horiz-adv-x="1197" 
d="M187 1432q-13 0 -13 -13v-1406q0 -13 13 -13h930q13 0 13 13v156q0 13 -13 13h-761v443h551q13 0 13 13v156q0 13 -13 13h-551v443h761q13 0 13 13v156q0 13 -13 13h-930zM618 1643q0 40 -28 68t-68 28q-39 0 -68 -28q-28 -28 -28 -68t28 -68t68 -28t68 28t28 68z
M877 1643q0 40 -29 68q-28 28 -68 28q-39 0 -67 -28q-29 -28 -29 -68t29 -68q28 -28 67 -28q40 0 68 28q29 28 29 68z" />
    <glyph glyph-name="Igrave" unicode="&#xcc;" horiz-adv-x="583" 
d="M231 1432q-13 0 -13 -13v-1406q0 -13 13 -13h157q13 0 13 13v1406q0 13 -13 13h-157zM546 1711q12 -2 10 -14l-20 -140q-2 -11 -15 -10l-448 67q-12 1 -10 14l21 139q2 13 14 10z" />
    <glyph glyph-name="Iacute" unicode="&#xcd;" horiz-adv-x="556" 
d="M204 1432q-13 0 -13 -13v-1406q0 -13 13 -13h157q13 0 13 13v1406q0 13 -13 13h-157zM494 1777q12 3 14 -10l21 -139q2 -13 -10 -14l-448 -67q-13 -1 -15 10l-20 140q-2 12 10 14z" />
    <glyph glyph-name="Icircumflex" unicode="&#xce;" horiz-adv-x="632" 
d="M242 1432q-13 0 -13 -13v-1406q0 -13 13 -13h157q13 0 13 13v1406q0 13 -13 13h-157zM316 1762q6 2 9 0l270 -110q12 -5 7 -17l-53 -130q-6 -11 -16 -7l-214 88l-213 -85q-11 -5 -16 7l-52 131q-4 11 7 16z" />
    <glyph glyph-name="Idieresis" unicode="&#xcf;" horiz-adv-x="537" 
d="M208 1432q-13 0 -13 -13v-1406q0 -13 13 -13h157q13 0 13 13v1406q0 13 -13 13h-157zM253 1643q0 40 -28 68t-68 28t-68 -28t-28 -68t28 -68t68 -28t68 28t28 68zM512 1643q0 40 -29 68q-28 28 -68 28q-39 0 -67 -28q-29 -28 -29 -68t29 -68q28 -28 67 -28q40 0 68 28
q29 28 29 68z" />
    <glyph glyph-name="Eth" unicode="&#xd0;" horiz-adv-x="1485" 
d="M357 807v445h284q222 0 378 -156q157 -157 157 -378t-157 -378q-156 -157 -378 -157h-284v441h409q13 0 13 13v157q0 13 -13 13h-409zM187 1435q-13 0 -13 -13v-1409q0 -13 13 -13h442q296 0 510 205t220 499q6 301 -206 516q-211 215 -512 215h-454z" />
    <glyph glyph-name="Ntilde" unicode="&#xd1;" horiz-adv-x="1387" 
d="M952 1744q8 -2 22 -10q7 -4 7 -11v-141q0 -5 -5 -10q-5 -4 -11 -2l-37 12q-41 13 -94 13q-45 0 -139 -15l-37 -6l-38 -5q-42 -5 -76 -5q-64 0 -119 17l-19 7q-9 2 -9 12v143q0 7 5 10q5 4 11 2l37 -11q42 -14 94 -14q46 0 139 15l37 6l37 5q43 5 77 5q65 0 118 -17z
M1044 1433q-13 0 -13 -13v-1018l-768 1025q-4 6 -10 6h-66q-13 0 -13 -13v-1407q0 -13 13 -13h148q13 0 13 13v1011l763 -1019q4 -5 10 -5h71q13 0 13 13v1407q0 13 -13 13h-148z" />
    <glyph glyph-name="Ograve" unicode="&#xd2;" horiz-adv-x="1623" 
d="M1023 1711q12 -2 10 -14l-20 -140q-2 -11 -15 -10l-448 66q-12 2 -10 15l21 139q3 12 14 10zM410 339q-156 156 -156 377q0 220 156 377q156 156 377 156q220 0 377 -156q156 -157 156 -377q0 -221 -156 -377q-157 -156 -377 -156q-221 0 -377 156zM281 1222
q-210 -210 -210 -506t210 -506t506 -210t506 210t210 506t-210 506t-506 210t-506 -210z" />
    <glyph glyph-name="Oacute" unicode="&#xd3;" horiz-adv-x="1623" 
d="M999 1777q11 2 14 -10l20 -139q3 -13 -10 -15l-447 -66q-13 -1 -16 10l-20 140q-2 12 10 14zM410 339q-156 156 -156 377q0 220 156 377q156 156 377 156q220 0 377 -156q156 -157 156 -377q0 -221 -156 -377q-157 -156 -377 -156q-221 0 -377 156zM281 1222
q-210 -210 -210 -506t210 -506t506 -210t506 210t210 506t-210 506t-506 210t-506 -210z" />
    <glyph glyph-name="Ocircumflex" unicode="&#xd4;" horiz-adv-x="1623" 
d="M783 1762q5 2 9 0l270 -110q11 -5 7 -17l-54 -130q-5 -11 -16 -7l-213 88l-213 -85q-12 -5 -16 7l-52 131q-5 11 7 16zM410 339q-156 156 -156 377q0 220 156 377q156 156 377 156q220 0 377 -156q156 -157 156 -377q0 -221 -156 -377q-157 -156 -377 -156
q-221 0 -377 156zM281 1222q-210 -210 -210 -506t210 -506t506 -210t506 210t210 506t-210 506t-506 210t-506 -210z" />
    <glyph glyph-name="Otilde" unicode="&#xd5;" horiz-adv-x="1623" 
d="M1050 1744q7 -2 22 -10q7 -4 7 -11v-141q0 -6 -5 -10t-11 -2l-37 12q-41 13 -94 13q-46 0 -139 -15l-37 -6l-38 -5q-42 -5 -76 -5q-64 0 -119 17l-19 7q-9 2 -9 12v143q0 7 5 10q5 4 11 2l37 -11q42 -14 94 -14q46 0 139 15l37 6l37 5q43 5 77 5q64 0 118 -17zM410 339
q-156 156 -156 377q0 220 156 377q156 156 377 156q220 0 377 -156q156 -157 156 -377q0 -221 -156 -377q-157 -156 -377 -156q-221 0 -377 156zM281 1222q-210 -210 -210 -506t210 -506t506 -210t506 210t210 506t-210 506t-506 210t-506 -210z" />
    <glyph glyph-name="Odieresis" unicode="&#xd6;" horiz-adv-x="1623" 
d="M754 1643q0 40 -29 68q-28 28 -68 28q-39 0 -67 -28q-29 -28 -29 -68t29 -68q27 -28 67 -28q41 0 68 28q29 28 29 68zM1012 1643q0 40 -29 68q-28 28 -67 28t-68 -28t-29 -68t29 -68q28 -28 68 -28t67 28q29 28 29 68zM410 339q-156 156 -156 377q0 220 156 377
q156 156 377 156q220 0 377 -156q156 -157 156 -377q0 -221 -156 -377q-157 -156 -377 -156q-221 0 -377 156zM281 1222q-210 -210 -210 -506t210 -506t506 -210t506 210t210 506t-210 506t-506 210t-506 -210z" />
    <glyph glyph-name="multiply" unicode="&#xd7;" 
d="M643 836l-177 177q-9 10 -18 0l-101 -100q-9 -10 0 -19l177 -177l-177 -178q-9 -9 0 -18l101 -101q9 -9 18 0l177 178l178 -178q9 -9 18 0l101 101q9 9 0 18l-177 178l177 177q9 9 0 19l-101 100q-9 10 -18 0z" />
    <glyph glyph-name="Oslash" unicode="&#xd8;" horiz-adv-x="1636" 
d="M490 280l743 743q97 -138 97 -307q0 -221 -156 -377q-157 -156 -377 -156q-169 0 -307 97zM420 1093q156 156 377 156q169 0 307 -97l-743 -743q-97 138 -97 307q0 220 156 377zM1441 1231q9 9 0 18l-111 111q-9 9 -18 0l-78 -78q-193 150 -437 150q-296 0 -506 -210
t-210 -506q0 -244 150 -437l-78 -78q-9 -9 0 -18l111 -111q9 -9 18 0l78 78q193 -150 437 -150q296 0 506 210t210 506q0 244 -150 437z" />
    <glyph glyph-name="Ugrave" unicode="&#xd9;" horiz-adv-x="1347" 
d="M902 1711q12 -2 10 -14l-20 -140q-2 -11 -15 -10l-448 66q-12 2 -10 15l21 139q2 12 14 10zM1011 1432q-13 0 -13 -13v-905q0 -140 -102 -239q-102 -98 -243 -93q-134 5 -228 105q-92 100 -92 236v896q0 13 -13 13h-156q-13 0 -13 -13v-894q0 -217 154 -372
q154 -157 369 -153q210 4 358 154t148 360v905q0 13 -13 13h-156z" />
    <glyph glyph-name="Uacute" unicode="&#xda;" horiz-adv-x="1347" 
d="M877 1777q12 2 14 -10l21 -139q2 -13 -10 -15l-448 -66q-13 -1 -15 10l-20 140q-2 12 10 14zM1011 1432q-13 0 -13 -13v-905q0 -140 -102 -239q-102 -98 -243 -93q-134 5 -228 105q-92 100 -92 236v896q0 13 -13 13h-156q-13 0 -13 -13v-894q0 -217 154 -372
q154 -157 369 -153q210 4 358 154t148 360v905q0 13 -13 13h-156z" />
    <glyph glyph-name="Ucircumflex" unicode="&#xdb;" horiz-adv-x="1347" 
d="M662 1763q5 1 9 0l270 -110q11 -5 7 -17l-54 -130q-5 -12 -16 -7l-213 88l-213 -85q-12 -6 -16 7l-52 131q-5 11 7 16zM1011 1432q-13 0 -13 -13v-905q0 -140 -102 -239q-102 -98 -243 -93q-134 5 -228 105q-92 100 -92 236v896q0 13 -13 13h-156q-13 0 -13 -13v-894
q0 -217 154 -372q154 -157 369 -153q210 4 358 154t148 360v905q0 13 -13 13h-156z" />
    <glyph glyph-name="Udieresis" unicode="&#xdc;" horiz-adv-x="1347" 
d="M632 1644q0 40 -28 68t-68 28t-68 -28t-28 -68t28 -68t68 -28t68 28t28 68zM891 1644q0 40 -29 68q-28 28 -68 28q-39 0 -67 -28q-29 -28 -29 -68t29 -68q28 -28 67 -28q40 0 68 28q29 27 29 68zM1011 1432q-13 0 -13 -13v-905q0 -140 -102 -239q-102 -98 -243 -93
q-134 5 -228 105q-92 100 -92 236v896q0 13 -13 13h-156q-13 0 -13 -13v-894q0 -217 154 -372q154 -157 369 -153q210 4 358 154t148 360v905q0 13 -13 13h-156z" />
    <glyph glyph-name="Yacute" unicode="&#xdd;" horiz-adv-x="952" 
d="M714 1777q12 2 14 -10l21 -139q2 -14 -10 -15l-448 -66q-13 -2 -15 10l-20 140q-2 12 10 14zM828 1431q-7 0 -11 -6l-315 -501l-315 501q-3 6 -11 6h-174q-8 0 -11 -7q-4 -6 0 -13l424 -675v-723q0 -13 13 -13h148q13 0 13 13v721l425 677q4 7 0 13q-4 7 -11 7h-175z" />
    <glyph glyph-name="Thorn" unicode="&#xde;" horiz-adv-x="1120" 
 />
    <glyph glyph-name="germandbls" unicode="&#xdf;" horiz-adv-x="1251" 
 />
    <glyph glyph-name="agrave" unicode="&#xe0;" horiz-adv-x="891" 
d="M226 1324q-12 2 -14 -11l-21 -139q-2 -12 11 -14l448 -67q12 -2 14 10l21 140q2 12 -10 14zM272 195q-20 23 -20 74q0 40 26 63q60 53 233 53q39 0 82 -3q-16 -129 -92 -184q-28 -21 -64 -30q-26 -7 -54 -7q-81 0 -111 34zM757 448v0q2 108 -11 172q-19 97 -76 155
q-81 83 -232 83q-107 0 -196 -42q-33 -15 -60 -35q-11 -8 -21 -16q-8 -6 -14 -12q-10 -9 0 -18l100 -93q8 -7 17 0q10 8 22 15q17 11 36 19q53 21 116 21q83 0 117 -35q33 -33 39 -119q-298 19 -422 -90q-81 -71 -81 -184q0 -126 78 -197q77 -71 214 -71q133 0 231 81
q4 -36 9 -71q1 -11 12 -11h137q14 0 13 14q-5 33 -9 66q-5 45 -9 88q-11 117 -11 199v49q1 17 1 32z" />
    <glyph glyph-name="aacute" unicode="&#xe1;" horiz-adv-x="891" 
d="M202 1257q-13 -2 -11 -14l21 -140q2 -12 14 -10l449 67q12 2 10 14l-21 139q-2 13 -14 11zM272 195q-20 23 -20 74q0 40 26 63q60 53 233 53q39 0 82 -3q-16 -129 -92 -184q-28 -21 -64 -30q-26 -7 -54 -7q-81 0 -111 34zM757 448v0q2 108 -11 172q-19 97 -76 155
q-81 83 -232 83q-107 0 -196 -42q-33 -15 -60 -35q-11 -8 -21 -16q-8 -6 -14 -12q-10 -9 0 -18l100 -93q8 -7 17 0q10 8 22 15q17 11 36 19q53 21 116 21q83 0 117 -35q33 -33 39 -119q-298 19 -422 -90q-81 -71 -81 -184q0 -126 78 -197q77 -71 214 -71q133 0 231 81
q4 -36 9 -71q1 -11 12 -11h137q14 0 13 14q-5 33 -9 66q-5 45 -9 88q-11 117 -11 199v49q1 17 1 32z" />
    <glyph glyph-name="acircumflex" unicode="&#xe2;" horiz-adv-x="890" 
d="M162 1219q-12 -4 -7 -16l52 -131q4 -11 16 -7l214 85l212 -87q12 -5 16 7l54 130q5 12 -7 16l-270 111q-4 2 -9 0zM271 194q-20 23 -20 74q0 41 27 64q59 53 232 53q39 0 81 -3q-15 -129 -91 -185q-28 -20 -64 -29q-26 -7 -54 -7q-81 0 -111 33zM755 447v0q2 109 -11 173
q-19 96 -75 154q-82 83 -233 83q-106 0 -195 -42q-32 -15 -60 -35q-11 -8 -21 -16l-14 -12q-10 -9 0 -18l101 -93q8 -7 16 0q10 8 22 15q17 11 36 19q53 21 115 21q84 0 118 -35q32 -33 39 -118q-298 19 -422 -91q-80 -71 -80 -184q0 -125 77 -196q77 -72 214 -72
q133 0 231 82q4 -36 8 -71q2 -11 13 -11h137q14 0 12 14l-8 66q-6 45 -10 88q-11 116 -11 199q0 16 1 49v31z" />
    <glyph glyph-name="atilde" unicode="&#xe3;" horiz-adv-x="895" 
d="M587 1296q-34 0 -76 -4l-38 -5l-37 -6q-94 -15 -139 -15q-52 0 -94 13l-37 12q-6 2 -11 -2t-5 -10v-144q0 -9 9 -12l19 -6q55 -17 119 -17q34 0 76 5l38 5l37 6q94 14 139 14q52 0 94 -13l37 -11q6 -2 11 2q5 3 5 10v140q0 8 -7 11q-15 8 -21 10q-55 17 -119 17zM276 195
q-20 23 -20 74q0 40 26 63q60 53 233 53q39 0 82 -3q-16 -129 -92 -184q-28 -21 -64 -30q-26 -7 -54 -7q-81 0 -111 34zM761 448v0q2 108 -11 172q-19 97 -76 155q-81 83 -232 83q-107 0 -196 -42q-33 -15 -60 -35q-11 -8 -21 -16q-8 -6 -14 -12q-10 -9 0 -18l100 -93
q8 -7 17 0q10 8 22 15q17 11 36 19q53 21 116 21q83 0 117 -35q33 -33 39 -119q-298 19 -422 -90q-81 -71 -81 -184q0 -126 78 -197q77 -71 214 -71q133 0 231 81q4 -36 9 -71q1 -11 12 -11h137q14 0 13 14q-5 33 -9 66q-5 45 -9 88q-11 117 -11 199v49q1 17 1 32z" />
    <glyph glyph-name="adieresis" unicode="&#xe4;" horiz-adv-x="891" 
d="M272 195q-20 23 -20 74q0 40 26 64q60 53 233 53q39 0 81 -3q-15 -130 -91 -185q-29 -21 -64 -30q-26 -7 -54 -7q-82 0 -111 34zM757 448v0q2 109 -11 173q-19 96 -76 154q-81 83 -233 83q-107 0 -196 -41q-32 -16 -60 -35q-11 -8 -21 -16q-7 -6 -14 -13q-9 -9 0 -18
l101 -92q8 -8 16 -1q10 8 22 16q17 10 37 18q52 22 115 22q84 0 118 -35q33 -33 39 -119q-299 19 -423 -91q-80 -71 -80 -184q0 -126 77 -197q78 -71 215 -71q133 0 231 81q4 -36 9 -71q1 -11 12 -11h137q14 0 13 14q-5 33 -9 66q-5 45 -9 88q-12 117 -12 199q0 17 1 50
q1 16 1 31zM241 1267q-29 -28 -29 -68t29 -68q28 -28 68 -28q39 0 68 28q28 28 28 68t-28 68q-29 28 -68 28q-40 0 -68 -28zM499 1267q-28 -28 -28 -68t28 -68t68 -28t68 28t28 68t-28 68t-68 28t-68 -28z" />
    <glyph glyph-name="aring" unicode="&#xe5;" horiz-adv-x="890" 
d="M391 1151q-19 19 -19 46t19 46t46 19t46 -19t19 -46t-19 -46t-46 -19t-46 19zM280 1354q-66 -65 -66 -157t66 -158q65 -65 157 -65t157 65q66 66 66 158t-66 157q-65 65 -157 65t-157 -65zM271 194q-20 23 -20 74q0 41 27 64q59 53 232 53q39 0 81 -3q-15 -129 -91 -185
q-28 -20 -64 -29q-26 -7 -54 -7q-81 0 -111 33zM755 447v0q2 109 -11 173q-19 96 -75 154q-82 83 -233 83q-106 0 -195 -42q-32 -15 -60 -35q-11 -8 -21 -16l-14 -12q-10 -9 0 -18l101 -93q8 -7 16 0q10 8 22 15q17 11 36 19q53 21 115 21q84 0 118 -35q32 -33 39 -118
q-298 19 -422 -91q-80 -71 -80 -184q0 -125 77 -196q77 -72 214 -72q133 0 231 82q4 -36 8 -71q2 -11 13 -11h137q14 0 12 14l-8 66q-6 45 -10 88q-11 116 -11 199q0 16 1 49v31z" />
    <glyph glyph-name="ae" unicode="&#xe6;" horiz-adv-x="1521" 
d="M759 474q15 95 82 155q68 61 162 61q88 0 153 -47q63 -47 85 -127zM561 265q-21 -38 -50 -60q-34 -26 -78 -36q-23 -5 -49 -5q-24 0 -48 4q-46 9 -64 33q-19 26 -17 76q2 35 27 56q28 23 80 36q40 10 94 13q28 2 56 2q37 0 78 -3v-15v-22l-2 -12q-11 -39 -27 -67z
M868 831q-94 -33 -163 -106q-15 25 -36 46q-81 83 -232 83q-119 0 -216 -52q-32 -17 -58 -39q-9 -7 -17 -14q-2 -3 -5 -5l-2 -2l-1 -1l-19 -21q-8 -9 1 -18l83 -75l20 -19q9 -7 17 1l19 20h1v1l2 2q4 3 9 7q14 11 33 21q59 30 133 30q82 0 115 -34q31 -32 38 -115
q-41 2 -77 2q-34 0 -67 -2q-29 -2 -54 -5q-36 -5 -69 -13q-38 -10 -67 -22q-41 -18 -74 -44q-40 -32 -62 -75q-23 -43 -26 -95q-6 -109 45 -182q31 -43 79 -69q39 -20 88 -29q38 -6 74 -6q46 0 89 10q81 20 141 69q2 -24 5 -45l3 -24q1 -11 12 -11h141q14 0 12 14l-2 20
l-8 46q12 -11 30 -22q99 -58 215 -58q114 0 213 57q100 58 157 157l14 24q6 11 -5 17l-121 70q-11 6 -17 -5l-11 -20q-61 -104 -172 -129q-91 -20 -174 20q-81 40 -120 120l623 54q11 1 11 13v55q0 155 -99 274q-100 120 -252 143q-101 15 -197 -19z" />
    <glyph glyph-name="ccedilla" unicode="&#xe7;" horiz-adv-x="775" 
d="M638 195q-6 10 -17 4q-64 -40 -140 -40q-117 0 -197 88t-69 207q9 92 74 159t156 79q95 13 176 -36q10 -7 17 3l76 113q7 10 -4 17q-120 76 -263 65q-160 -13 -273 -130t-120 -277q-8 -168 100 -296q107 -126 270 -148v-82q0 -13 13 -13h30q16 0 26 -13t6 -29
q-5 -18 -23 -23q-14 -4 -26 3q-11 7 -15 20q-3 9 -12 9h-61q-14 0 -12 -14q6 -50 47 -81q42 -31 94 -21q34 7 59 32t32 59q9 44 -12 83q-21 37 -61 52v15q110 7 202 66q11 6 4 17z" />
    <glyph glyph-name="egrave" unicode="&#xe8;" horiz-adv-x="1007" 
d="M276 1314l448 -67q13 -2 11 -14l-21 -140q-2 -12 -14 -10l-449 67q-12 1 -10 14l21 139q2 13 14 11zM646 647q-66 50 -158 50q-97 0 -167 -63q-69 -62 -83 -161l494 43q-21 83 -86 131zM491 858q171 -2 291 -126t120 -297v-54q0 -11 -11 -12l-630 -55q33 -69 97 -110
q66 -43 145 -43q68 0 128 33q61 33 98 91q6 10 16 4l118 -68q11 -6 5 -17q-59 -95 -156 -149q-98 -55 -209 -55q-178 0 -303 126q-126 126 -126 303q0 181 121 305q121 125 296 124z" />
    <glyph glyph-name="eacute" unicode="&#xe9;" horiz-adv-x="1007" 
d="M252 1247q-13 -2 -11 -14l21 -140q2 -12 14 -10l449 67q12 1 10 14l-21 139q-2 13 -14 11zM238 473q14 99 83 161q70 63 167 63q92 0 158 -50q65 -48 86 -131zM195 734q-121 -124 -121 -305q0 -177 126 -303q125 -126 303 -126q111 0 209 55q97 54 156 149q6 11 -5 17
l-118 68q-10 6 -16 -4q-37 -58 -98 -91q-60 -33 -128 -33q-79 0 -145 43q-64 41 -97 110l630 55q11 1 11 12v54q0 173 -120 297t-291 126q-175 1 -296 -124z" />
    <glyph glyph-name="ecircumflex" unicode="&#xea;" horiz-adv-x="1007" 
d="M213 1223q-12 -5 -7 -16l52 -132q4 -11 16 -7l214 85l213 -87q11 -5 16 7l53 130q5 12 -6 17l-271 111q-4 1 -9 0zM238 473q14 99 83 161q70 63 167 63q92 0 158 -50q65 -48 86 -131zM195 734q-121 -124 -121 -305q0 -177 126 -303q125 -126 303 -126q111 0 209 55
q97 54 156 149q6 11 -5 17l-118 68q-10 6 -16 -4q-37 -58 -98 -91q-60 -33 -128 -33q-79 0 -145 43q-64 41 -97 110l630 55q11 1 11 12v54q0 173 -120 297t-291 126q-175 1 -296 -124z" />
    <glyph glyph-name="edieresis" unicode="&#xeb;" horiz-adv-x="1007" 
d="M238 473q14 99 83 161q70 63 167 63q92 0 158 -50q65 -48 86 -131zM195 734q-121 -124 -121 -305q0 -177 126 -303q125 -126 303 -126q111 0 209 55q97 54 156 149q6 11 -5 17l-118 68q-10 6 -16 -4q-37 -58 -98 -91q-60 -33 -128 -33q-79 0 -145 43q-64 41 -97 110
l630 55q11 1 11 12v54q0 173 -120 297t-291 126q-175 1 -296 -124zM291 1266q-28 -28 -28 -68q0 -39 28 -68q28 -28 68 -28t68 28q28 29 28 68q0 40 -28 68t-68 28t-68 -28zM549 1266q-28 -28 -28 -68q0 -39 28 -68q28 -28 68 -28t68 28q28 29 28 68q0 40 -28 68t-68 28
t-68 -28z" />
    <glyph glyph-name="igrave" unicode="&#xec;" horiz-adv-x="557" 
d="M71 1314q-12 2 -14 -11l-21 -139q-2 -13 11 -14l448 -67q12 -2 14 10l21 140q2 12 -10 14zM215 857q-12 0 -12 -12v-833q0 -12 12 -12h136q12 0 12 12v833q0 12 -12 12h-136z" />
    <glyph glyph-name="iacute" unicode="&#xed;" horiz-adv-x="557" 
d="M47 1247q-13 -2 -11 -14l21 -140q2 -12 14 -10l449 67q12 1 10 14l-21 139q-2 13 -14 11zM215 857q-12 0 -12 -12v-833q0 -12 12 -12h136q12 0 12 12v833q0 12 -12 12h-136z" />
    <glyph glyph-name="icircumflex" unicode="&#xee;" horiz-adv-x="614" 
d="M46 1219q-12 -4 -7 -16l52 -131q4 -12 16 -7l214 85l212 -87q12 -5 16 6l54 131q5 11 -7 16l-270 111q-4 2 -9 0zM253 856q-12 0 -12 -12v-832q0 -12 12 -12h136q12 0 12 12v832q0 12 -12 12h-136z" />
    <glyph glyph-name="idieresis" unicode="&#xef;" horiz-adv-x="509" 
d="M191 857q-12 0 -12 -12v-833q0 -12 12 -12h136q12 0 12 12v833q0 12 -12 12h-136zM62 1266q-28 -28 -28 -68q0 -39 28 -68q28 -28 68 -28t68 28q28 29 28 68q0 40 -28 68t-68 28t-68 -28zM320 1266q-28 -28 -28 -68q0 -39 28 -68q28 -28 68 -28t68 28q28 29 28 68
q0 40 -28 68t-68 28t-68 -28z" />
    <glyph glyph-name="eth" unicode="&#xf0;" horiz-adv-x="997" 
d="M261 186q-92 92 -93 221v2q0 130 93 222q92 93 222 93q76 0 144 -35t112 -97l18 -28l2 -3l1 -2q38 -70 38 -150q0 -130 -92 -223q-93 -92 -223 -92t-222 92zM842 606q-14 24 -31 47l-204 319h175q14 0 14 14v66q0 14 -14 14h-235l-233 363q-4 6 -11 6h-79q-8 0 -12 -7
t0 -14l223 -348h-171q-14 0 -14 -14v-66q0 -14 14 -14h232l110 -173q-60 19 -123 19q-169 0 -289 -120t-120 -289v-3q1 -168 121 -287t288 -119q169 0 289 120t120 289q0 104 -50 195v2z" />
    <glyph glyph-name="ntilde" unicode="&#xf1;" horiz-adv-x="993" 
d="M652 1296q-34 0 -76 -4l-38 -5l-37 -6q-94 -15 -139 -15q-52 0 -94 13l-37 12q-6 2 -11 -2t-5 -10v-144q0 -9 9 -12l19 -6q55 -17 119 -17q34 0 76 5l38 5l37 6q94 14 139 14q52 0 94 -13l37 -11q6 -2 11 2q5 3 5 10v140q0 8 -7 11q-15 8 -21 10q-55 17 -119 17zM858 375
v25v27v54v28q-1 19 -3 37q-4 37 -16 73q-25 72 -79 128q-53 54 -126 81q-35 13 -72 18l-9 1q-5 1 -10 1l-4 1h-6h-8h-7l-6 1l-4 -1h-9l-9 -1q-69 -5 -130 -37q-21 -10 -43 -27v65q0 13 -12 13h-139q-13 0 -13 -13v-837q0 -12 13 -12h139q12 0 12 12v484l1 11v14l1 4v3v3
q1 6 3 17q5 22 16 43q13 27 33 48q53 57 129 60h5h5l3 1l1 -1h7h6h2l2 -1h5l5 -1q21 -3 40 -10q40 -16 69 -47q30 -31 42 -71q7 -19 9 -40l1 -20v-28q0 -24 -1 -54v-27v-25q0 -65 -1 -96q0 -118 -1 -197v-68q0 -13 12 -13h137q13 0 13 13l-1 68q0 79 -1 197q0 31 -1 96z" />
    <glyph glyph-name="ograve" unicode="&#xf2;" horiz-adv-x="1036" 
d="M291 1313q-13 2 -14 -10l-21 -140q-2 -12 10 -14l449 -67q12 -1 14 11l21 140q1 12 -11 14zM314 239q-79 79 -79 190q0 110 79 189q78 78 189 78q110 0 189 -78q79 -79 79 -189q0 -111 -79 -190q-79 -78 -189 -78q-111 0 -189 78zM200 731q-126 -125 -126 -302
q0 -178 126 -303q126 -126 303 -126t303 126q125 125 125 303q0 177 -125 302q-126 126 -303 126t-303 -126z" />
    <glyph glyph-name="oacute" unicode="&#xf3;" horiz-adv-x="1036" 
d="M266 1247q-12 -2 -10 -14l21 -140q2 -12 14 -11l448 67q12 2 11 14l-21 140q-2 12 -14 10zM314 239q-79 79 -79 190q0 110 79 189q78 78 189 78q110 0 189 -78q79 -79 79 -189q0 -111 -79 -190q-79 -78 -189 -78q-111 0 -189 78zM200 731q-126 -125 -126 -302
q0 -178 126 -303q126 -126 303 -126t303 126q125 125 125 303q0 177 -125 302q-126 126 -303 126t-303 -126z" />
    <glyph glyph-name="ocircumflex" unicode="&#xf4;" horiz-adv-x="1037" 
d="M228 1223q-12 -5 -7 -16l52 -132q4 -11 16 -7l214 85l213 -87q11 -5 16 7l53 130q5 12 -6 17l-271 111q-4 1 -9 0zM314 239q-79 79 -79 190q0 110 79 189q78 79 189 79t189 -79q79 -79 79 -189q0 -111 -79 -190q-78 -78 -189 -78t-189 78zM200 732q-126 -126 -126 -303
q0 -178 126 -303q126 -126 303 -126t303 126q126 125 126 303q0 177 -126 303q-126 125 -303 125t-303 -125z" />
    <glyph glyph-name="otilde" unicode="&#xf5;" horiz-adv-x="1037" 
d="M648 1296q-34 0 -76 -4l-38 -5l-37 -6q-94 -15 -139 -15q-52 0 -94 13l-37 12q-6 2 -11 -2t-5 -10v-144q0 -9 9 -12l19 -6q55 -17 119 -17q34 0 76 5l38 5l37 6q94 14 139 14q52 0 94 -13l37 -11q6 -2 11 2q5 3 5 10v140q0 8 -7 11q-15 8 -21 10q-55 17 -119 17zM314 239
q-79 79 -79 190q0 110 79 189q78 79 189 79t189 -79q79 -79 79 -189q0 -111 -79 -190q-78 -78 -189 -78t-189 78zM200 732q-126 -126 -126 -303q0 -178 126 -303q126 -126 303 -126t303 126q126 125 126 303q0 177 -126 303q-126 125 -303 125t-303 -125z" />
    <glyph glyph-name="odieresis" unicode="&#xf6;" horiz-adv-x="1037" 
d="M314 239q-79 79 -79 190t79 189q78 79 189 79t189 -79q79 -78 79 -189t-79 -190q-78 -78 -189 -78t-189 78zM200 732q-126 -126 -126 -303q0 -178 126 -303q126 -126 303 -126t303 126q126 125 126 303q0 177 -126 303q-126 125 -303 125t-303 -125zM306 1266
q-28 -28 -28 -68q0 -39 28 -67q28 -29 68 -29t68 29q28 28 28 67q0 40 -28 68q-28 29 -68 29t-68 -29zM564 1266q-28 -28 -28 -68q0 -39 28 -67q28 -29 68 -29t68 29q28 28 28 67q0 40 -28 68q-28 29 -68 29t-68 -29z" />
    <glyph glyph-name="divide" unicode="&#xf7;" 
d="M87 647v140h839l1 -1v-139h-840zM398 408l82 84q15 14 29 14q13 0 31 -16l80 -86q12 -16 12 -29q0 -15 -14 -31l-80 -88q-20 -20 -29 -20q-16 0 -29 14l-88 101q-10 13 -10 26q0 15 16 31zM398 1101l82 84q15 14 29 14q13 0 31 -16l80 -86q12 -16 12 -29q0 -15 -14 -31
l-80 -88q-20 -20 -29 -20q-16 0 -29 14l-88 101q-10 13 -10 26q0 15 16 31z" />
    <glyph glyph-name="oslash" unicode="&#xf8;" horiz-adv-x="1078" 
d="M729 239q-78 -78 -189 -78q-74 0 -137 38l395 300q10 -35 10 -70q0 -111 -79 -190zM350 618q79 79 190 79q96 0 170 -62l-415 -316q-23 53 -23 110q0 111 78 189zM917 777q-7 9 -17 2l-59 -45q-126 123 -301 123q-178 0 -303 -125q-126 -126 -126 -303q0 -112 54 -209
l-83 -63q-10 -7 -2 -17l82 -108q8 -10 18 -3l89 68q118 -97 271 -97q177 0 303 126q125 125 125 303q0 90 -36 172l65 50q10 7 3 17z" />
    <glyph glyph-name="ugrave" unicode="&#xf9;" horiz-adv-x="963" 
d="M266 1313q-12 2 -14 -11l-21 -139q-2 -13 11 -14l448 -67q12 -2 14 10l21 140q2 12 -11 14zM668 353l-1 -10v-15l-1 -4q0 -4 -1 -6q0 -7 -3 -17q-5 -23 -15 -44q-14 -27 -34 -48q-54 -57 -132 -59h-5h-4h-13l-8 1l-6 1l-5 1q-20 3 -40 11q-39 16 -68 49q-30 33 -41 73
q-6 20 -7 41q-1 7 -1 23l1 14v14v55v27v26q1 63 1 97q0 119 1 199v68q0 12 -12 12h-137q-12 0 -12 -12v-68q1 -80 1 -199q0 -20 1 -47v-25v-25v-108l1 -28q0 -18 1 -34q3 -38 14 -74q22 -74 76 -132q53 -58 125 -86q35 -14 72 -20l9 -1l9 -1l10 -1l10 -1h15h4h2h5l9 1
q70 4 132 35q23 12 47 29v-46q0 -12 12 -12h139q12 0 12 12v836q0 13 -12 13h-139q-12 0 -12 -13v-502z" />
    <glyph glyph-name="uacute" unicode="&#xfa;" horiz-adv-x="963" 
d="M242 1246q-13 -2 -11 -14l21 -140q2 -12 14 -10l448 67q13 1 11 14l-21 139q-2 13 -14 11zM668 353l-1 -10v-15l-1 -4q0 -4 -1 -6q0 -7 -3 -17q-5 -23 -15 -44q-14 -27 -34 -48q-54 -57 -132 -59h-5h-4h-13l-8 1l-6 1l-5 1q-20 3 -40 11q-39 16 -68 49q-30 33 -41 73
q-6 20 -7 41q-1 7 -1 23l1 14v14v55v27v26q1 63 1 97q0 119 1 199v68q0 12 -12 12h-137q-12 0 -12 -12v-68q1 -80 1 -199q0 -20 1 -47v-25v-25v-108l1 -28q0 -18 1 -34q3 -38 14 -74q22 -74 76 -132q53 -58 125 -86q35 -14 72 -20l9 -1l9 -1l10 -1l10 -1h15h4h2h5l9 1
q70 4 132 35q23 12 47 29v-46q0 -12 12 -12h139q12 0 12 12v836q0 13 -12 13h-139q-12 0 -12 -13v-502z" />
    <glyph glyph-name="ucircumflex" unicode="&#xfb;" horiz-adv-x="965" 
d="M203 1225q-11 -5 -7 -17l53 -131q4 -12 16 -7l214 85l213 -87q12 -5 16 6l54 131q5 12 -7 17l-270 111q-5 1 -10 0zM669 354v-11l-1 -14v-4q0 -4 -1 -7q-1 -6 -3 -17q-5 -22 -16 -43q-13 -27 -34 -49q-53 -56 -132 -59h-5h-4l-13 1l-8 1h-5l-6 1q-20 4 -40 12
q-39 16 -69 49q-29 32 -40 73q-6 20 -7 41q-1 7 -1 23v14v14q0 24 1 55v27v26v97q1 120 2 200v68q0 12 -12 12h-137q-13 0 -13 -12l1 -68q0 -80 1 -200v-47v-24v-26q1 -66 1 -108v-28q0 -18 1 -35q3 -37 14 -74q23 -74 76 -132q54 -58 126 -86q35 -14 72 -20l9 -1l10 -1
l9 -1l11 -1h14h4h2h5l9 1q70 4 133 35q23 12 46 29v-46q0 -12 13 -12h139q12 0 12 12v838q0 13 -12 13h-139q-13 0 -13 -13v-503z" />
    <glyph glyph-name="udieresis" unicode="&#xfc;" horiz-adv-x="962" 
d="M667 353v-11l-1 -14v-5q-1 -3 -1 -6q-1 -6 -3 -17q-5 -22 -16 -43q-13 -27 -34 -49q-53 -56 -131 -58h-5h-4h-13l-9 1l-5 1h-5q-20 4 -40 12q-39 16 -68 49q-29 32 -41 73q-6 20 -7 40v23v14v14v55v27l1 26v96q1 120 1 199l1 68q0 12 -13 12h-136q-13 0 -13 -12l1 -68
q0 -79 1 -199v-46v-25v-25q1 -66 1 -108v-28q0 -18 1 -34q3 -38 14 -74q23 -74 76 -132q54 -57 125 -85q35 -14 72 -20l9 -1l9 -1l10 -1l10 -1h15h4h2h5l9 1q70 4 132 35q23 12 46 29v-46q0 -12 13 -12h138q12 0 12 12v834q0 13 -12 13h-138q-13 0 -13 -13v-500zM417 1127
q-28 -28 -68 -28q-39 0 -68 28q-28 28 -28 67q0 40 28 68q29 28 68 28q40 0 68 -28t28 -68q0 -39 -28 -67zM674 1127q-28 -28 -67 -28q-40 0 -68 28t-28 67q0 40 28 68t68 28q39 0 67 -28t28 -68q0 -39 -28 -67z" />
    <glyph glyph-name="yacute" unicode="&#xfd;" horiz-adv-x="1025" 
d="M242 1225q-13 -2 -11 -16l23 -155q2 -14 15 -12l499 74q13 2 11 16l-23 155q-2 14 -16 12zM509 126l-277 670q-4 8 -13 8h-167q-7 0 -11 -6t-2 -13l374 -899l-162 -402q-3 -7 2 -13q4 -6 11 -6h166q9 0 13 9l527 1311q3 7 -1 13t-12 6h-166q-9 0 -12 -9z" />
    <glyph glyph-name="thorn" unicode="&#xfe;" horiz-adv-x="1010" 
 />
    <glyph glyph-name="ydieresis" unicode="&#xff;" horiz-adv-x="1025" 
d="M437 1097q-31 -31 -75 -31q-45 0 -76 31q-31 32 -31 76t31 75t76 31q44 0 75 -31t31 -75t-31 -76zM723 1097q-31 -31 -75 -31t-75 31q-32 32 -32 76t32 75q31 31 75 31t75 -31q32 -31 32 -75t-32 -76zM509 129l-277 669q-4 9 -13 9h-166q-8 0 -12 -6t-1 -13l373 -899
l-162 -401q-2 -7 2 -13t11 -6h166q10 0 13 9l527 1310q3 7 -2 13q-4 6 -11 6h-166q-9 0 -13 -9z" />
    <glyph glyph-name="dotlessi" unicode="&#x131;" horiz-adv-x="516" 
d="M32 728q-10 -10 0 -19l104 -104q9 -9 18 0l57 57v-649q0 -13 13 -13h147q13 0 13 13v906q0 13 -13 13h-130q-5 0 -9 -4z" />
    <glyph glyph-name="circumflex" unicode="&#x2c6;" 
d="M620 1430q9 10 18 0l363 -362q9 -10 0 -19l-101 -101q-9 -9 -18 0l-253 253l-253 -253q-9 -9 -18 0l-101 101q-9 9 0 19z" />
    <glyph glyph-name="caron" unicode="&#x2c7;" 
d="M638 948q-9 -9 -18 0l-363 363q-9 9 0 19l101 100q9 10 18 0l253 -252l253 252q9 10 18 0l101 -100q9 -10 0 -19z" />
    <glyph glyph-name="uni02C9" unicode="&#x2c9;" horiz-adv-x="1024" 
d="M254 1195v125h516v-125h-516z" />
    <glyph glyph-name="dotaccent" unicode="&#x2d9;" horiz-adv-x="1024" 
d="M398 1190q-28 29 -28 69t28 68q29 29 69 29t68 -29q29 -28 29 -68t-29 -69q-28 -28 -68 -28t-69 28z" />
    <glyph glyph-name="ring" unicode="&#x2da;" horiz-adv-x="1024" 
d="M411 1257q0 -42 29 -71t71 -29t71 29t29 71q0 40 -29.5 69.5t-70.5 29.5t-70.5 -29.5t-29.5 -69.5zM335 1257q0 75 51 126t125 51q76 0 127.5 -51.5t51.5 -125.5q0 -75 -51.5 -126.5t-127.5 -51.5q-74 0 -125 51.5t-51 126.5z" />
    <glyph glyph-name="tilde" unicode="&#x2dc;" horiz-adv-x="1024" 
d="M843 1284q-36 0 -80 -5l-40 -5l-39 -6q-98 -16 -146 -16q-54 0 -99 14l-38 12q-6 2 -12 -2q-5 -4 -5 -10v-151q0 -10 9 -13l21 -6q57 -18 124 -18q36 0 81 5l39 5l39 6q99 16 146 16q54 0 99 -14l38 -12q7 -2 12 2t5 10v148q0 8 -7 12q-15 8 -23 10q-57 18 -124 18z" />
    <glyph glyph-name="hungarumlaut" unicode="&#x2dd;" horiz-adv-x="672" 
d="M427 1229q-13 0 -13 14v226q0 13 13 13h53q13 0 13 -13v-226q0 -14 -13 -14h-53zM257 1229q-14 0 -14 14v226q0 13 14 13h52q14 0 14 -13v-226q0 -14 -14 -14h-52z" />
    <glyph glyph-name="endash" unicode="&#x2013;" horiz-adv-x="1108" 
d="M227 633q-13 0 -13 13v143q0 13 13 13h671q13 0 13 -13v-143q0 -13 -13 -13h-671z" />
    <glyph glyph-name="emdash" unicode="&#x2014;" horiz-adv-x="2048" 
d="M227 633q-13 0 -13 13v143q0 13 13 13h1071q13 0 13 -13v-143q0 -13 -13 -13h-1071z" />
    <glyph glyph-name="quoteleft" unicode="&#x2018;" horiz-adv-x="1024" 
d="M305 1237l81 212q4 12 -9 17l-48 18q-13 5 -18 -7l-81 -211q-4 -13 9 -18l48 -19q13 -5 18 8z" />
    <glyph glyph-name="quoteright" unicode="&#x2019;" horiz-adv-x="1024" 
d="M329 1229q-13 -5 -18 8l-81 212q-4 12 9 17l48 18q13 5 18 -7l81 -211q5 -13 -8 -18z" />
    <glyph glyph-name="quotesinglbase" unicode="&#x201a;" horiz-adv-x="557" 
d="M306 193q-12 0 -21 -8q-8 -9 -8 -21v-110q0 -44 31 -75q30 -30 74 -30h9q21 0 35 14q15 15 15 35v166q0 12 -9 21q-8 8 -20 8h-106z" />
    <glyph glyph-name="quotedblleft" unicode="&#x201c;" horiz-adv-x="672" 
d="M427 1229q-13 0 -13 14v226q0 13 13 13h53q13 0 13 -13v-226q0 -14 -13 -14h-53zM257 1229q-14 0 -14 14v226q0 13 14 13h52q14 0 14 -13v-226q0 -14 -14 -14h-52z" />
    <glyph glyph-name="quotedblright" unicode="&#x201d;" horiz-adv-x="672" 
d="M427 1229q-13 0 -13 14v226q0 13 13 13h53q13 0 13 -13v-226q0 -14 -13 -14h-53zM257 1229q-14 0 -14 14v226q0 13 14 13h52q14 0 14 -13v-226q0 -14 -14 -14h-52z" />
    <glyph glyph-name="quotedblbase" unicode="&#x201e;" horiz-adv-x="672" 
d="M257 -61q-14 0 -14 14v226q0 13 14 13h52q14 0 14 -13v-226q0 -14 -14 -14h-52zM427 -61q-13 0 -13 14v226q0 13 13 13h53q13 0 13 -13v-226q0 -14 -13 -14h-53z" />
    <glyph glyph-name="dagger" unicode="&#x2020;" 
d="M486 1022q-8 97 -54 178q-57 101 -57 129q0 49 36 78.5t96 29.5q57 0 94.5 -27.5t37.5 -71.5q0 -32 -55 -137q-46 -85 -55 -179q96 8 177 54q101 57 129 57q49 0 79 -36t30 -96q0 -57 -27.5 -94.5t-72.5 -37.5q-32 0 -136 55q-85 46 -179 57q8 -176 110 -277
q-106 -460 -112 -974h-38q-6 514 -114 974q102 101 111 277q-96 -10 -178 -55q-101 -57 -129 -57q-49 0 -78.5 36t-29.5 96q0 57 27.5 94.5t71.5 37.5q32 0 137 -56q85 -46 179 -55z" />
    <glyph glyph-name="daggerdbl" unicode="&#x2021;" 
d="M528 186q94 11 179 57q104 55 136 55q45 0 72.5 -37.5t27.5 -94.5q0 -60 -30 -96t-79 -36q-28 0 -129 57q-81 46 -177 54q9 -94 55 -179q55 -105 55 -137q0 -44 -37.5 -71.5t-94.5 -27.5q-60 0 -96 29.5t-36 78.5q0 28 57 129q46 81 54 178q-94 -9 -179 -55
q-105 -56 -137 -56q-44 0 -71.5 37.5t-27.5 94.5q0 60 29.5 96t78.5 36q28 0 129 -57q82 -45 178 -55q-9 226 -111 398q102 171 111 397q-96 -10 -178 -55q-101 -57 -129 -57q-49 0 -78.5 36t-29.5 96q0 57 27.5 94.5t71.5 37.5q32 0 137 -56q85 -46 179 -55q-8 97 -54 178
q-57 101 -57 129q0 49 36 78.5t96 29.5q57 0 94.5 -27.5t37.5 -71.5q0 -32 -55 -137q-46 -85 -55 -179q96 8 177 54q101 57 129 57q49 0 79 -36t30 -96q0 -57 -27.5 -94.5t-72.5 -37.5q-32 0 -136 55q-85 46 -179 57q8 -226 110 -397q-102 -172 -110 -398z" />
    <glyph glyph-name="bullet" unicode="&#x2022;" horiz-adv-x="1024" 
d="M279 770q-21 -21 -21 -51t21 -51t51 -21t51 21t21 51t-21 51t-51 21t-51 -21zM212 601q-49 49 -49 118t49 118t118 49t118 -49t49 -118t-49 -118t-118 -49t-118 49z" />
    <glyph glyph-name="ellipsis" unicode="&#x2026;" horiz-adv-x="2048" 
d="M328 28q-28 29 -28 69t28 68t68 28t69 -28q28 -28 28 -68t-28 -69q-29 -28 -69 -28q-39 0 -68 28zM672 28q-28 29 -28 69t28 68q29 28 69 28t68 -28t28 -68t-28 -69q-28 -28 -68 -28t-69 28zM1017 28q-28 29 -28 69t28 68q29 28 69 28t68 -28t28 -68t-28 -69
q-28 -28 -68 -28t-69 28z" />
    <glyph glyph-name="guilsinglleft" unicode="&#x2039;" 
d="M215 708q-9 9 0 19l363 363q9 9 19 0l101 -101q9 -10 0 -19l-253 -253l253 -252q9 -10 0 -19l-101 -101q-10 -9 -19 0z" />
    <glyph glyph-name="guilsinglright" unicode="&#x203a;" 
d="M335 345q-10 -9 -19 0l-101 101q-9 9 0 19l253 252l-253 253q-9 9 0 19l101 101q9 9 19 0l363 -363q9 -10 0 -19z" />
    <glyph glyph-name="fraction" unicode="&#x2044;" horiz-adv-x="342" 
d="M162 0q11 0 12 11l186 1409q2 15 -13 15h-148q-12 0 -13 -11l-186 -1409q-2 -15 13 -15h149z" />
    <glyph glyph-name="fraction" unicode="&#x2215;" horiz-adv-x="342" 
d="M162 0q11 0 12 11l186 1409q2 15 -13 15h-148q-12 0 -13 -11l-186 -1409q-2 -15 13 -15h149z" />
    <glyph glyph-name="franc" unicode="&#x20a3;" 
d="M247 357h-194v60h194v732q0 235 -103 235h-96v50h915l103 -231h-49q-59 182 -190 182l-316 -1q-102 0 -102 -235v-352h361q100 0 100 63v58h50v-342h-50v60q0 62 -100 62h-361v-281h194v-60h-194v-72q0 -235 102 -235h97v-50h-560v50h96q103 0 103 235v72z" />
    <glyph glyph-name="lira" unicode="&#x20a4;" 
d="M902 1005q11 -8 18 2l93 109q9 10 -2 19q-91 71 -207 71q-118 0 -211 -76q-93 -75 -117 -191l-167 -690q-2 -6 2 -11t11 -5h632q13 0 13 13v143q0 13 -13 13h-434l31 126h227q13 0 13 13v144q0 13 -13 13h-187l12 49h175q13 0 13 13v143q0 13 -13 13h-134q16 53 60 87
q45 33 100 33t98 -31z" />
    <glyph glyph-name="peseta" unicode="&#x20a7;" horiz-adv-x="2028" 
d="M409 1384v-662q3 -9 7 -17q41 -102 108 -153q57 -44 116 -44q10 0 19 1q68 8 127 75t87 177q22 87 22 179q0 24 -1 47q-7 116 -49.5 218.5t-108.5 144.5q-56 35 -112 35q-10 0 -21 -1h-194zM1496 908h-179v-685q0 -81 34 -119q28 -31 81 -37l-71 192l49 1
q55 -130 114 -174q57 -44 127 -44h7q92 0 151 52q59 53 59 136q0 102 -259 226q-101 52 -144 112t-43 145q0 121 73 194zM1039 910q-7 -101 -48 -194q-50 -114 -141 -177.5t-190 -63.5q-100 0 -191 64q-33 22 -60 51v-305q0 -235 102 -235h97v-50h-560v50h96q103 0 103 235
v864q0 235 -103 235h-96v50h618q92 -2 181 -62q91 -62 143 -177q50 -113 51 -237h10q216 0 216 355h50v-355h259q42 19 110 20h2q54 0 133.5 -13.5t79.5 -33.5v-159h-42q-4 66 -65.5 108t-133.5 42q-64 0 -102.5 -36.5t-38.5 -96.5q0 -108 235 -220q122 -55 167.5 -117.5
t45.5 -153.5q0 -140 -83 -231q-102 -84 -228 -86q-58 0 -105 11q-28 6 -56 6q-18 0 -36 -3q-28 -5 -59 -5q-124 0 -173.5 57t-57.5 176h-1v687h-129z" />
    <glyph glyph-name="Euro" unicode="&#x20ac;" horiz-adv-x="943" 
d="M797 442q-7 11 -18 4q-77 -48 -169 -48q-144 0 -240 108h158q13 0 13 13v143q0 13 -13 13h-235q-4 28 -3 55q0 15 3 31h235q13 0 13 13v143q0 13 -13 13h-157q94 105 232 108q95 2 175 -48q11 -6 18 4l80 118q8 12 -4 19q-127 81 -279 76q-200 -7 -339 -156
q-139 -148 -133 -349q6 -197 148 -335q143 -138 341 -138q143 0 263 77q11 7 4 18z" />
    <glyph glyph-name="uni2116" unicode="&#x2116;" horiz-adv-x="2271" 
d="M1041 970q-44 -49 -44 -112q0 -64 44 -104q45 -40 109 -34q63 7 108 57q44 49 44 112q0 64 -44 104q-45 40 -108 33q-64 -6 -109 -56zM952 655q-82 74 -82 189q0 116 82 206q82 91 198 103q115 12 197 -61q82 -74 82 -189q0 -116 -82 -207q-82 -90 -197 -102
q-116 -12 -198 61zM654 605l-370 456q-2 2 -5 2l-61 -7q-7 0 -7 -7v-764q0 -7 7 -6l112 12q7 1 7 7v488l368 -453q2 -3 5 -2l64 6q6 1 6 8v763q0 7 -6 6l-113 -11q-7 -1 -7 -8v-490zM881 340q-11 -1 -11 10v107q0 9 9 10l539 56q11 1 11 -10v-107q0 -9 -9 -10z" />
    <glyph glyph-name="trademark" unicode="&#x2122;" horiz-adv-x="1497" 
d="M495 1435q-2 0 -3 -2l-68 -76l-69 76q-1 2 -3 2h-14q-4 0 -4 -4v-209q0 -3 4 -3h28q3 0 3 3v143l52 -58q3 -3 5 0l52 58v-143q0 -3 4 -3h27q4 0 4 3v209q0 4 -4 4h-14zM170 1435q-3 0 -3 -4v-28q0 -3 3 -3h53v-178q0 -4 4 -4h28q3 0 3 4v178h53q4 0 4 3v28q0 4 -4 4h-141
z" />
    <glyph glyph-name="partialdiff" unicode="&#x2202;" 
d="M410 94q-130 0 -223 92q-92 92 -93 222l1 2q0 130 92 222q92 93 223 93q76 0 144 -35t112 -97l18 -28l2 -4l1 -1q38 -71 38 -150q0 -131 -92 -223q-93 -93 -223 -93zM0 410v-3q1 -169 121 -288t289 -119t289 120t120 290q0 104 -49 195l-1 2q-14 24 -30 47l-498 777
q-4 6 -12 6h-79q-8 0 -12 -7t1 -14l394 -616q-61 19 -123 19q-170 0 -290 -120t-120 -289z" />
    <glyph glyph-name="Delta" unicode="&#x2206;" horiz-adv-x="1081" 
d="M331 368l244 603l244 -603h-488zM238 322q-2 -6 2 -12q4 -7 11 -7h647q8 0 12 7q4 6 1 12l-323 800q-4 8 -13 8q-10 0 -13 -8z" />
    <glyph glyph-name="product" unicode="&#x220f;" horiz-adv-x="1515" 
d="M511 1384q-102 0 -102 -235v-1281q0 -235 102 -235h97v-51h-560v51h96q103 0 103 235v1281q0 235 -103 235h-96v50h1419v-50h-97q-102 0 -102 -235v-1281q0 -235 102 -235h97v-50h-560v50h96q103 0 103 235v1281q0 235 -103 235h-492z" />
    <glyph glyph-name="summation" unicode="&#x2211;" horiz-adv-x="1206" 
d="M397 1055l226 -352q4 -8 0 -15l-226 -352h425q14 0 14 -14v-67q0 -14 -14 -14h-572q-8 0 -12 7q-4 8 0 14l277 433l-277 433q-4 7 0 15q4 7 12 7h572q14 0 14 -14v-67q0 -14 -14 -14h-425z" />
    <glyph glyph-name="minus" unicode="&#x2212;" 
d="M227 633q-13 0 -13 13v143q0 13 13 13h671q13 0 13 -13v-143q0 -13 -13 -13h-671z" />
    <glyph glyph-name="radical" unicode="&#x221a;" 
d="M295 680q-10 10 0 20l48 46q10 10 20 0l202 -210l525 508q10 10 19 0l47 -48q9 -10 -1 -19l-582 -565q-10 -10 -20 0z" />
    <glyph glyph-name="infinity" unicode="&#x221e;" 
d="M283 772q-23 -23 -23 -56t23 -56t56 -23t56 23t23 56t-23 56t-56 23t-56 -23zM217 594q-51 50 -51 122t51 123q50 50 122 50t123 -50q50 -51 50 -123t-50 -122q-51 -51 -123 -51t-122 51zM681 810q-39 -39 -39 -94t39 -94q38 -39 93 -39t94 39t39 94t-39 94t-94 39
t-93 -39zM614 556q-67 66 -67 160t67 160q66 67 160 67t161 -67q66 -66 66 -160t-66 -160q-67 -67 -161 -67t-160 67z" />
    <glyph glyph-name="integral" unicode="&#x222b;" horiz-adv-x="665" 
d="M521 874v246q0 71 44 93q38 19 87 -12q11 -7 18 3l85 114q9 11 -3 19q-63 43 -132 50q-70 8 -131 -23q-64 -32 -101 -97q-36 -65 -36 -147v-246v-169v-679q0 -13 13 -13h143q13 0 13 13v679v169z" />
    <glyph glyph-name="approxequal" unicode="&#x2248;" 
d="M384 796q0 -13 13 -13h587q13 0 13 13v148q0 13 -13 13h-587q-13 0 -13 -13v-148zM843 684q-36 0 -80 -5l-40 -5l-39 -6q-98 -16 -146 -16q-54 0 -99 14l-38 12q-6 2 -12 -2q-5 -4 -5 -10v-151q0 -10 9 -13l21 -6q57 -18 124 -18q36 0 81 5l39 5l39 6q99 16 146 16
q54 0 99 -14l38 -12q7 -2 12 2t5 10v148q0 8 -7 12q-15 8 -23 10q-57 18 -124 18z" />
    <glyph glyph-name="lessequal" unicode="&#x2264;" horiz-adv-x="318" 
d="M-737 873q-9 9 0 18l363 363q9 9 18 0l101 -101q9 -9 0 -18l-253 -253l253 -253q9 -9 0 -18l-101 -101q-9 -10 -18 0zM-728 284q-13 0 -13 13v143q0 13 13 13h532q13 0 13 -13v-143q0 -13 -13 -13h-532z" />
    <glyph glyph-name="greaterequal" unicode="&#x2265;" horiz-adv-x="318" 
d="M-550 510q-9 -10 -18 0l-101 101q-9 9 0 18l253 253l-253 253q-9 9 0 18l101 101q9 9 18 0l363 -363q9 -9 0 -18zM-728 284q-13 0 -13 13v143q0 13 13 13h532q13 0 13 -13v-143q0 -13 -13 -13h-532z" />
    <glyph glyph-name="uniF001" unicode="&#xf001;" horiz-adv-x="748" 
d="M536 176q-36 0 -62 -26t-26 -62t26 -62t62 -26t62 26t26 62t-26 62t-62 26zM859 929q-1 44 -11 82q-10 45 -33 82q-24 40 -61 69q-35 27 -78 42q-36 14 -81 19l-10 1l-9 1l-21 1h-19h-10h-10q-81 -5 -155 -41q-35 -18 -67 -42q-17 -12 -31 -25l-9 -9q-7 -6 -12 -12
q-10 -10 1 -19l86 -71q8 -7 17 1l8 8q10 9 21 17q23 16 47 27q49 24 102 26l7 1h6h15l13 -1l7 -1l6 -1q28 -3 49 -12q45 -17 66 -53q11 -18 16 -41q6 -22 6 -50v-2v0v-4v-9l-1 -4q0 -3 -1 -6q0 -8 -4 -22q-6 -21 -18 -40q-24 -35 -77 -68q-34 -21 -111 -59l-34 -16
q-7 -4 -7 -12v-38l-1 -344q0 -13 13 -13h125q12 0 12 13l-1 299q50 25 83 47q36 23 63 47q33 30 56 64q24 38 36 82q7 24 9 43q0 5 1 12v12l1 8v11z" />
    <glyph glyph-name="uniF001" unicode="&#xfb01;" horiz-adv-x="748" 
d="M536 176q-36 0 -62 -26t-26 -62t26 -62t62 -26t62 26t26 62t-26 62t-62 26zM859 929q-1 44 -11 82q-10 45 -33 82q-24 40 -61 69q-35 27 -78 42q-36 14 -81 19l-10 1l-9 1l-21 1h-19h-10h-10q-81 -5 -155 -41q-35 -18 -67 -42q-17 -12 -31 -25l-9 -9q-7 -6 -12 -12
q-10 -10 1 -19l86 -71q8 -7 17 1l8 8q10 9 21 17q23 16 47 27q49 24 102 26l7 1h6h15l13 -1l7 -1l6 -1q28 -3 49 -12q45 -17 66 -53q11 -18 16 -41q6 -22 6 -50v-2v0v-4v-9l-1 -4q0 -3 -1 -6q0 -8 -4 -22q-6 -21 -18 -40q-24 -35 -77 -68q-34 -21 -111 -59l-34 -16
q-7 -4 -7 -12v-38l-1 -344q0 -13 13 -13h125q12 0 12 13l-1 299q50 25 83 47q36 23 63 47q33 30 56 64q24 38 36 82q7 24 9 43q0 5 1 12v12l1 8v11z" />
    <glyph glyph-name="uniF002" unicode="&#xf002;" horiz-adv-x="748" 
d="M536 176q-36 0 -62 -26t-26 -62t26 -62t62 -26t62 26t26 62t-26 62t-62 26zM859 929q-1 44 -11 82q-10 45 -33 82q-24 40 -61 69q-35 27 -78 42q-36 14 -81 19l-10 1l-9 1l-21 1h-19h-10h-10q-81 -5 -155 -41q-35 -18 -67 -42q-17 -12 -31 -25l-9 -9q-7 -6 -12 -12
q-10 -10 1 -19l86 -71q8 -7 17 1l8 8q10 9 21 17q23 16 47 27q49 24 102 26l7 1h6h15l13 -1l7 -1l6 -1q28 -3 49 -12q45 -17 66 -53q11 -18 16 -41q6 -22 6 -50v-2v0v-4v-9l-1 -4q0 -3 -1 -6q0 -8 -4 -22q-6 -21 -18 -40q-24 -35 -77 -68q-34 -21 -111 -59l-34 -16
q-7 -4 -7 -12v-38l-1 -344q0 -13 13 -13h125q12 0 12 13l-1 299q50 25 83 47q36 23 63 47q33 30 56 64q24 38 36 82q7 24 9 43q0 5 1 12v12l1 8v11z" />
    <glyph glyph-name="uniF002" unicode="&#xfb02;" horiz-adv-x="748" 
d="M536 176q-36 0 -62 -26t-26 -62t26 -62t62 -26t62 26t26 62t-26 62t-62 26zM859 929q-1 44 -11 82q-10 45 -33 82q-24 40 -61 69q-35 27 -78 42q-36 14 -81 19l-10 1l-9 1l-21 1h-19h-10h-10q-81 -5 -155 -41q-35 -18 -67 -42q-17 -12 -31 -25l-9 -9q-7 -6 -12 -12
q-10 -10 1 -19l86 -71q8 -7 17 1l8 8q10 9 21 17q23 16 47 27q49 24 102 26l7 1h6h15l13 -1l7 -1l6 -1q28 -3 49 -12q45 -17 66 -53q11 -18 16 -41q6 -22 6 -50v-2v0v-4v-9l-1 -4q0 -3 -1 -6q0 -8 -4 -22q-6 -21 -18 -40q-24 -35 -77 -68q-34 -21 -111 -59l-34 -16
q-7 -4 -7 -12v-38l-1 -344q0 -13 13 -13h125q12 0 12 13l-1 299q50 25 83 47q36 23 63 47q33 30 56 64q24 38 36 82q7 24 9 43q0 5 1 12v12l1 8v11z" />
  </font>
</defs>
</svg>
